<?xml version="1.0" encoding="utf-8"?>
<!-- Generator: Adobe Illustrator 18.1.1, SVG Export Plug-In . SVG Version: 6.00 Build 0)  -->
<!DOCTYPE svg PUBLIC "-//W3C//DTD SVG 1.1//EN" "http://www.w3.org/Graphics/SVG/1.1/DTD/svg11.dtd">
<svg version="1.1" id="Layer_1" xmlns="http://www.w3.org/2000/svg" xmlns:xlink="http://www.w3.org/1999/xlink" x="0px" y="0px"
	 width="100px" height="76.9px" viewBox="0 0 100 76.9" enable-background="new 0 0 100 76.9" xml:space="preserve">
<g>
	<path fill="#FFFFFF" d="M45.8,3.3C29.7,9.9,19.4,17.2,19.4,26.7c0,3.7,0.7,6.6,1.8,7.7c12.1,1.8,20.9,9.9,20.9,23.4
		c0,9.9-9.2,19-19.4,19C9.5,76.9,0,67.8,0,50.9C0,24.5,18.7,8.1,44.7,0L45.8,3.3z M100,3.3C83.9,9.9,73.6,17.2,73.6,26.7
		c0,3.7,0.7,6.6,1.8,7.7c12.1,1.8,20.9,9.9,20.9,23.4c0,9.9-9.2,19-19.4,19c-13.2,0-22.7-9.2-22.7-26C54.2,24.5,72.9,8.1,98.9,0
		L100,3.3z"/>
</g>
</svg>
