<?xml version="1.0" encoding="UTF-8" standalone="no"?>
<svg width="100px" height="77px" viewBox="0 0 100 77" version="1.1" xmlns="http://www.w3.org/2000/svg" xmlns:xlink="http://www.w3.org/1999/xlink" xmlns:sketch="http://www.bohemiancoding.com/sketch/ns">
    <!-- Generator: Sketch 3.0.3 (7892) - http://www.bohemiancoding.com/sketch -->
    <title>citation</title>
    <desc>Created with Sketch.</desc>
    <defs></defs>
    <g id="Page-1" stroke="none" stroke-width="1" fill="none" fill-rule="evenodd" sketch:type="MSPage">
        <g id="citation" sketch:type="MSLayerGroup" fill="#FFFFFF">
            <path d="M45.8,73.5008154 C29.7,66.9008154 19.4,59.6008154 19.4,50.1008154 C19.4,46.4008154 20.1,43.5008154 21.2,42.4008154 C33.3,40.6008154 42.1,32.5008154 42.1,19.0008154 C42.1,9.10081544 32.9,0.000815442268 22.7,0.000815442268 C9.5,-0.0991845577 0,9.00081544 0,25.9008154 C0,52.3008154 18.7,68.7008154 44.7,76.8008154 L45.8,73.5008154 L45.8,73.5008154 Z M100,73.5 C83.9,66.9 73.6,59.6 73.6,50.1 C73.6,46.4 74.3,43.5 75.4,42.4 C87.5,40.6 96.3,32.5 96.3,19 C96.3,9.1 87.1,0 76.9,0 C63.7,0 54.2,9.2 54.2,26 C54.2,52.3 72.9,68.7 98.9,76.8 L100,73.5 L100,73.5 Z" id="Shape" sketch:type="MSShapeGroup" transform="translate(50.000000, 38.500000) scale(-1, 1) translate(-50.000000, -38.500000) "></path>
        </g>
    </g>
</svg>