<?xml version="1.0" encoding="utf-8"?>
<!-- Generator: Adobe Illustrator 18.1.1, SVG Export Plug-In . SVG Version: 6.00 Build 0)  -->
<!DOCTYPE svg PUBLIC "-//W3C//DTD SVG 1.1//EN" "http://www.w3.org/Graphics/SVG/1.1/DTD/svg11.dtd">
<svg version="1.1" id="Layer_1" xmlns="http://www.w3.org/2000/svg" xmlns:xlink="http://www.w3.org/1999/xlink" x="0px" y="0px"
	 width="917.3px" height="302.5px" viewBox="0 0 917.3 302.5" enable-background="new 0 0 917.3 302.5" xml:space="preserve">
<g>
	<g>
		<path fill="#272525" d="M397.3,141.5c-0.2-2.5-0.3-4.4-0.4-6.4c-2.3,0.3-4.7,0.3-7,1c-1.4,0.4-2.7,1.6-3.7,2.8
			c-8.5,10-21.3,11-32.3,15.9c-0.8,0.3-1.8,0.2-2.7,0.4c-0.2-0.5-0.4-1-0.6-1.5c5.9-2.5,11.8-4.9,17.6-7.7c5.1-2.5,10.6-5,14.9-8.7
			c8-6.9,12.9-8.1,22.5-3.6c2.1,1,4.3,1.8,6.4,2.8c6.6,3.1,10.3,1.9,14.2-4.3c2.9-4.7,8.2-6.2,13.1-3.6c4.1,2.2,8,4.7,12.8,7.5
			c1.3-1.4,3.1-3.1,4.6-5c4-5.3,8-6.3,13.4-2.6c7.2,4.9,14.4,7.8,23.5,5.3c3.3-0.9,7.5,0.1,10.8,1.4c6.4,2.6,12.5,6,18.5,10.2
			c-3.1-0.3-6.1-0.7-9.2-1c0.2,0.4,0.3,0.7,0.5,1.1c-1.1,0.5-2.4,1.8-3.3,1.5c-5.4-1.5-10.7-3.4-16.4-5.2c-0.4,1.7-0.6,2.8-0.8,3.8
			c-4.5-2.6-8.8-5.1-13.4-7.8c-2.8,4.6-4.9,5.4-7.9,0.2c-1.8-3.1-5.7-4.9-10.2-9.1c-2.5,3.3-5.1,6.5-8.1,10.4
			c3.4,1.5,6.7,2.6,9.6,4.4c2.9,1.8,5.5,4.3,8.2,6.4c-3.6,1.2-21.5-7.4-28.7-13.6c-2.2,1.3-4.3,2.5-6.4,3.7c0-2.5,0-5,0-8.9
			c-2,0.7-4.4,1-5.9,2.3c-6.1,5.1-11.6,11-18,15.6c-5.9,4.1-12.7,6.8-19.1,10.2c-0.5-0.9-1-1.8-1.5-2.6c2.9-1.6,5.8-3.1,8.7-4.9
			c2.4-1.4,5-2.8,6.7-4.8c0.9-1.2,0.7-4.2-0.2-5.6c-0.7-1.1-3.3-1.5-5-1.5C400.4,140,398.7,141,397.3,141.5z"/>
		<path fill="#272525" d="M426.6,173.9c0.4-0.7,1-1.6,2-3.1c-4.3-0.9-8.2-1.7-12.9-2.7c0.1,0.2-0.3-0.8-1-2.6
			c-5.9,3.2-11.8,5.7-16.9,9.4c-5.3,3.8-10.7,6.4-17.3,6.7c7.3-4.8,14.8-9.3,22-14.3c6.5-4.5,13-7.5,21.1-4c0.9,0.4,2.8-0.2,3.7-1
			c8.4-7.5,17-4.6,25.3-0.2c7.4,3.9,14.5,8.5,21.6,13.2c-10.1-0.2-20-1-28.5-7c-1.8-1.2-2.7-3.6-4.4-5.1c-5.4-4.7-9-1.5-13,4.3
			c6.2,2,12.1,3.9,17.9,5.8c0.2-0.5,0.3-1,0.5-1.6c1,2,1.9,3.9,3.3,6.7C442.1,176.5,433.7,181.6,426.6,173.9z"/>
	</g>
</g>
<g>
	<g>
		<path fill="#272525" d="M255.3,66.1c-9-1.8-17.9-3.6-26.9-5.5c-0.4-0.8-0.7-1.7-1.1-2.5c1.5-0.4,3-0.8,4.5-1.1
			c-0.4-0.5-0.8-0.9-1.1-1.4c-2,0.7-4.1,1.4-6.4,2.2c-3.2-5.1-13.8-3.5-13.4-14.5c-2.9,2.9-5.9,5.9-8.4,8.4c-5.1-3-7.1,3.4-11,3.4
			c2.6,10.4,11.6,13.6,19.9,7.6c5.3-3.8,10.3-2.2,16.5,5.6c-3.1,0-5.7,0-8.9,0c0-1.5,0-2.9,0-5.3c-4.6,2.2-8.5,4.1-13.3,6.4
			c5,3.7,9,7.2,13.5,10c4.3,2.7,9,4.9,13.1,8c-9.3-1.4-19.4,0.3-26.4-8.4c-6-7.3-6.1-7.1-14.2-2c-0.7-2.7-1.9-5.1-1.8-7.4
			c0.2-6.7-4.1-9-9.3-10.8c-3.4-1.2-10.4-5.8-13.5-9.1c-0.4-0.4-1.3-0.9-1.5-0.7c-3.6,2-7.4,3.8-10.5,6.5c-1.5,1.3-1.7,4.2-3.1,8
			c-1.1-0.1-3.9-0.7-6.6-0.6c-1.8,0.1-4.1,0.7-5.1,1.9c-4,5-7.6,10.4-11.9,16.5c4.1,3.6,8.1,7.3,12.1,10.9c-0.2,0.3-0.4,0.7-0.6,1
			c-5.2-3.2-10.4-6.4-15.7-9.7c-7.1,3.8-14.9,8-22.7,12.3c-0.4-0.7-0.9-1.5-1.3-2.2c1.8-1.4,3.5-2.8,5.4-4
			c6.5-4.1,13.3-7.6,19.3-12.3c3.7-2.9,5.8-7.8,9.3-11.1c3.1-2.9,7.1-4.7,10.7-7c1.6-1.1,3.2-2.2,4.8-3.3c5-3.5,10.1-7,15-10.5
			c1.4-1,2.8-2.3,3.9-3.6c5.1-5.7,10.3-5.1,14,1.5c0.7,1.2,1.2,2.6,2,3.8c2.4,3.4,4.5,4.9,8.8,1.6c4.7-3.6,10.4-6.2,16.1-8.3
			c5.1-1.8,8.5,2,11.9,5.4c2.4,2.3,5.6,3.9,8.6,5.5c5.9,3,11.9,5.7,17.8,8.6c2.7,1.3,5.2,3.1,7.7,4.6
			C255.4,65,255.3,65.6,255.3,66.1z M168.8,48.2c0.5,1,1,2,1.6,2.9c3.1-0.8,6.1-1.5,9.2-2.3c-1-2.2-2.1-4.4-3.1-6.6
			C173.9,44.2,171.4,46.2,168.8,48.2z"/>
		<path fill="#272525" d="M199.3,91.3c-9.3-0.9-18.6-1.9-28.8-2.9c1.7-1.6,3.6-2.7,4.5-4.4c1-1.7,1.2-3.9,1.7-5.9
			c-0.5-0.3-0.9-0.7-1.4-1c-4.2,3.6-8.5,7.2-13.9,11.8c4-9.7,12.5-15.2,18.2-13c0.9,0.4,1.9,0.7,2.7,1.3c5.2,4,10.3,8.1,15.5,12
			c0.9,0.7,2.2,0.9,3.3,1.3C200.5,90.8,199.9,91,199.3,91.3z"/>
	</g>
</g>
<g>
	<g>
		<path fill="#272525" d="M783.5,219.8c2.8-2.7,5.6-5.3,8.4-8c-0.3-0.4-0.6-0.8-0.9-1.2c-6.9,2.3-13.7,4.6-20.6,6.8
			c-0.2-0.6-0.4-1.3-0.7-1.9c2.8-1,5.6-1.9,8.3-2.9c2.3-0.9,4.8-1.6,6.7-3c3.5-2.7,6.6-5.6,11.5-2.9c0.7,0.4,2.2-0.1,2.9-0.6
			c5.2-4.6,10.5-9.1,15.4-14c4.1-4.1,5.9-4.3,9.9,0c4.7,5.1,9.2,10.3,14.1,15.1c2,1.9,4.7,3.2,7.2,4.5c1.6,0.9,3.4,1.5,5.1,2.3
			c-0.1,0.6-0.2,1.2-0.3,1.8c-5.3,0-10.7,0-16,0c-0.2,0.5-0.4,1-0.6,1.5c-1.6-2.6-3.2-5.2-4.9-7.8c-1-1.5-2.1-3-3.2-4.5
			c-2.5-3.5-5.1-6.9-8.2-11.2c-5.9,5.4-12.6,11.9-19.7,17.9c-4.1,3.5-8.9,6.3-13.4,9.4C784.1,220.7,783.8,220.2,783.5,219.8z"/>
		<path fill="#272525" d="M763.2,173.7c0.1-0.6,0-1.3,0.3-1.5c5.5-4.7,10.9-9.6,16.7-13.9c1.3-1,5.2-0.8,6,0.2
			c4.9,6.9,12.6,9.6,19.4,13.5c0.4,0.2,0.7,0.7,2.1,2.2c-2.7-0.2-4.6,0.2-5.7-0.5c-4.4-2.8-10.1-1.7-14.2-5.7
			c-1.3-1.3-5.4,0.4-9.4-0.3c2.3-1.4,4.5-2.9,6.8-4.3c-0.5-0.7-1-1.4-1.6-2.1C775.8,163.5,771.5,172.2,763.2,173.7z"/>
		<path fill="#272525" d="M827.3,227.3c-4.1,2.2-8.3,4.4-12.5,6.5c-0.3-0.5-0.6-1.1-0.9-1.6c4-3,7.9-6.2,12.1-9
			c1-0.7,3.2-0.2,4.5,0.3c3.6,1.5,7.1,3.3,10.5,5.2c0.9,0.5,1.6,1.7,1.9,2.8c0.1,0.4-0.9,1.4-1.6,1.7
			C838.3,234.6,828.6,230.3,827.3,227.3z"/>
		<path fill="#272525" d="M803.7,221.1c5.2-3.2,10.3-6.7,15.7-9.4c1.5-0.7,4.6,0.5,6.3,1.7c3.6,2.5,6.8,5.6,10.5,8.7
			c-5.1-0.4-9.8-0.7-14.8-1.1c-0.3-1.4-0.9-3.6-1.6-6.5c-5.4,3.1-10.2,5.9-15,8.7C804.5,222.5,804.1,221.8,803.7,221.1z"/>
	</g>
</g>
<path fill="#272525" d="M718,31.9c0.3-0.5,0.8-1.2,1.5-2.4c-3.2-0.7-6.2-1.3-9.8-2.1c0.1,0.2-0.2-0.6-0.7-2c-4.5,2.4-9,4.4-12.9,7.1
	c-4,2.9-8.2,4.9-13.1,5.1c5.6-3.6,11.3-7.1,16.7-10.9c5-3.4,9.9-5.7,16-3c0.7,0.3,2.1-0.2,2.8-0.8c6.4-5.7,12.9-3.5,19.2-0.1
	c5.7,3,11.1,6.5,16.4,10c-7.7-0.1-15.2-0.8-21.7-5.3c-1.3-0.9-2.1-2.8-3.3-3.9c-4.1-3.6-6.9-1.2-9.9,3.3c4.7,1.5,9.2,3,13.6,4.4
	c0.1-0.4,0.3-0.8,0.4-1.2c0.7,1.5,1.5,3,2.5,5.1C729.8,33.9,723.4,37.8,718,31.9z"/>
<g>
	<path fill="#FFFFFF" d="M672.7,96.4l-1-2.8c0,0-2.8,1-5.7,2.1c-2.8,1.1-5.6,2.2-5.6,2.2l1.1,2.8c0,0,2.8-1.1,5.6-2.1
		C669.9,97.4,672.7,96.4,672.7,96.4z"/>
	<path fill="#FFFFFF" d="M643,235.9c-1,0.5-2.4,1.1-3.7,1.6c-2.7,1.2-5.5,2.1-5.5,2.1l1,2.8c0,0,2.9-1,5.7-2.2
		c1.4-0.6,2.8-1.2,3.8-1.7c1-0.5,1.7-0.8,1.7-0.8l-1.3-2.7C644.7,235.1,644,235.4,643,235.9z"/>
	<path fill="#FFFFFF" d="M649.3,102.5c0,0-2.8,1.2-5.5,2.5c-2.7,1.3-5.4,2.6-5.4,2.6l1.3,2.7c0,0,2.7-1.3,5.4-2.6
		c2.7-1.3,5.4-2.5,5.4-2.5L649.3,102.5z"/>
	<path fill="#FFFFFF" d="M662.6,70.7c0.6,0.4,1.2,0.7,1.9,1.1c2.5,1.6,4.9,3.3,4.9,3.3l1.7-2.5c0,0-2.5-1.8-5.1-3.4
		c-0.7-0.4-1.3-0.8-1.9-1.2c-0.6-0.4-1.2-0.7-1.7-1c-1-0.6-1.6-0.9-1.6-0.9l-1.5,2.6c0,0,0.7,0.4,1.6,0.9
		C661.4,70,662,70.3,662.6,70.7z"/>
	<path fill="#FFFFFF" d="M708.6,132l2.9-0.6c0,0-0.6-3-1.4-6c-0.4-1.5-0.9-2.9-1.2-4c-0.4-1.1-0.6-1.8-0.6-1.8l-2.8,1
		c0,0,0.2,0.7,0.6,1.7c0.4,1,0.8,2.5,1.2,3.9C708.1,129.1,708.6,132,708.6,132z"/>
	<path fill="#FFFFFF" d="M656.6,231.9c0,0,2.6-1.6,5.1-3.3c1.3-0.8,2.5-1.7,3.4-2.4c0.9-0.7,1.5-1.1,1.5-1.1l-1.8-2.4
		c0,0-0.6,0.4-1.5,1.1c-0.9,0.7-2.1,1.5-3.3,2.3c-2.5,1.7-5,3.2-5,3.2L656.6,231.9z"/>
	<path fill="#FFFFFF" d="M718.9,84.2l-0.5-3c0,0-3,0.5-5.9,1.2c-3,0.6-5.9,1.3-5.9,1.3l0.7,2.9c0,0,2.9-0.7,5.8-1.3
		C715.9,84.7,718.9,84.2,718.9,84.2z"/>
	<path fill="#FFFFFF" d="M582.6,149.4c0.8-0.8,1.8-1.9,2.8-2.9c2.1-2.1,4.3-4.1,4.3-4.1l-2-2.2c0,0-2.3,2-4.4,4.2
		c-1.1,1.1-2.1,2.2-2.9,3c-0.8,0.8-1.3,1.4-1.3,1.4l2.2,2C581.4,150.7,581.9,150.2,582.6,149.4z"/>
	<path fill="#FFFFFF" d="M571,165c1.5-2.6,3.1-5,3.1-5l-2.5-1.7c0,0-1.7,2.5-3.3,5.2c-0.8,1.3-1.5,2.7-2,3.7c-0.5,1-0.8,1.7-0.8,1.7
		l2.7,1.3c0,0,0.3-0.7,0.8-1.7C569.5,167.6,570.2,166.3,571,165z"/>
	<path fill="#FFFFFF" d="M596.8,246.5c1.2,0.2,1.9,0.3,1.9,0.3l0.5-3c0,0-0.8-0.1-1.8-0.3c-1.1-0.2-2.5-0.5-3.9-0.9
		c-2.8-0.8-5.5-1.9-5.5-1.9l-1.2,2.8c0,0,2.8,1.3,5.8,2.1C594.1,246,595.6,246.3,596.8,246.5z"/>
	<path fill="#FFFFFF" d="M707.8,173.5c0.5-1.4,1-2.9,1.4-4c0.3-1.1,0.6-1.8,0.6-1.8l-2.9-0.9c0,0-0.2,0.7-0.5,1.8
		c-0.3,1.1-0.8,2.4-1.3,3.8c-1,2.8-2.3,5.4-2.3,5.4l2.7,1.2C705.4,179.2,706.7,176.4,707.8,173.5z"/>
	<path fill="#FFFFFF" d="M574.8,235.7c0.4,0.4,0.8,0.7,1.1,0.9c0.3,0.2,0.4,0.3,0.4,0.3l1.9-2.3c0,0-0.1-0.1-0.4-0.3
		c-0.3-0.2-0.6-0.5-1-0.9c-0.8-0.7-1.8-1.7-2.8-2.8c-2-2.1-3.6-4.6-3.6-4.6l-2.5,1.7c0,0,1.7,2.6,3.8,4.9
		C572.8,233.9,573.9,235,574.8,235.7z"/>
	<path fill="#FFFFFF" d="M643.2,61.3c2.8,1.1,5.5,2.3,5.5,2.3l1.2-2.7c0,0-2.8-1.2-5.6-2.3c-1.4-0.6-2.8-1.1-3.9-1.5
		c-1.1-0.4-1.8-0.6-1.8-0.6l-1,2.8c0,0,0.7,0.2,1.8,0.6C640.4,60.2,641.8,60.7,643.2,61.3z"/>
	<path fill="#FFFFFF" d="M629.1,115.7l-1.4-2.6c0,0-2.7,1.4-5.3,2.9c-2.6,1.5-5.2,3-5.2,3l1.5,2.6c0,0,2.6-1.5,5.2-3
		C626.5,117.1,629.1,115.7,629.1,115.7z"/>
	<path fill="#FFFFFF" d="M610.9,247.5c0,0,3.1-0.1,6.1-0.6c1.5-0.2,3-0.5,4.1-0.7c1.1-0.2,1.9-0.4,1.9-0.4l-0.6-2.9
		c0,0-0.7,0.1-1.8,0.4c-1.1,0.2-2.5,0.5-4,0.7c-2.9,0.4-5.8,0.6-5.8,0.6L610.9,247.5z"/>
	<path fill="#FFFFFF" d="M626.2,55.8l0.8-2.9c0,0-2.9-0.8-5.9-1.5c-1.5-0.3-3-0.7-4.1-0.9c-1.1-0.2-1.8-0.4-1.8-0.4l-0.6,2.9
		c0,0,2.9,0.6,5.8,1.2C623.4,55,626.2,55.8,626.2,55.8z"/>
	<path fill="#FFFFFF" d="M579.3,45.8c0,0-0.7,0-1.9-0.1c-0.6,0-1.2-0.1-1.9-0.1c-0.4,0-0.7,0-1.1-0.1c-0.4,0-0.8,0-1.1,0
		c-3-0.1-6-0.2-6-0.2l-0.1,3c0,0,3,0.1,6,0.2c0.4,0,0.7,0,1.1,0c0.4,0,0.7,0,1.1,0.1c0.7,0,1.4,0.1,1.9,0.1c1.1,0.1,1.9,0.1,1.9,0.1
		L579.3,45.8z"/>
	<path fill="#FFFFFF" d="M897.4,286.4c1.8-2.4,3.5-4.9,3.5-4.9l-0.3-0.2c0,0-1.6,2.5-3.4,4.9c-1.8,2.4-3.7,4.7-3.7,4.7l0.1,0.1
		C893.6,291.1,895.6,288.8,897.4,286.4z"/>
	<path fill="#FFFFFF" d="M887.6,124.3c-0.7-0.9-1.2-1.5-1.2-1.5l-1.8,1.5c0,0,0.5,0.6,1.2,1.4c0.7,0.9,1.6,2,2.5,3.2
		c1.8,2.4,3.4,4.9,3.4,4.9l1.8-1.2c0,0-1.6-2.5-3.4-5C889.2,126.4,888.3,125.2,887.6,124.3z"/>
	<path fill="#FFFFFF" d="M904.6,154.1c0,0-1.1-2.8-2.4-5.5c-0.6-1.4-1.3-2.7-1.8-3.8c-0.5-1-0.9-1.7-0.9-1.7l-1.8,0.9
		c0,0,0.3,0.7,0.9,1.7c0.5,1,1.2,2.3,1.8,3.7c1.3,2.7,2.4,5.4,2.4,5.4L904.6,154.1z"/>
	<path fill="#FFFFFF" d="M869,105.9l-1.6,2c0,0,0.6,0.5,1.5,1.1c0.9,0.7,2,1.6,3.2,2.6c2.3,1.9,4.4,4,4.4,4l1.7-1.8
		c0,0-2.2-2.1-4.5-4.1c-1.1-1-2.3-2-3.2-2.7C869.6,106.4,869,105.9,869,105.9z"/>
	<path fill="#FFFFFF" d="M912.9,189.1c0,0,0.5,2.9,1,5.9c0.5,3,0.8,5.9,0.8,5.9l1.3-0.2c0,0-0.3-3-0.8-6c-0.4-3-0.9-5.9-0.9-5.9
		L912.9,189.1z"/>
	<path fill="#FFFFFF" d="M848.5,93l-1.3,2.6c0,0,0.7,0.3,1.7,0.8c1,0.5,2.3,1.2,3.6,1.9c2.6,1.4,5.1,3,5.1,3l1.4-2.3
		c0,0-2.6-1.6-5.2-3.1c-1.3-0.7-2.7-1.5-3.7-2C849.2,93.4,848.5,93,848.5,93z"/>
	<path fill="#FFFFFF" d="M906.5,270.9l0.4,0.2c0,0,1.4-2.7,2.6-5.4c1.2-2.7,2.3-5.5,2.3-5.5l-0.5-0.2c0,0-1,2.8-2.2,5.5
		C907.9,268.2,906.5,270.9,906.5,270.9z"/>
	<path fill="#FFFFFF" d="M910.4,171.2c-0.8-2.9-1.7-5.8-1.7-5.8l-1.6,0.5c0,0,0.9,2.8,1.8,5.7c0.8,2.9,1.5,5.8,1.5,5.8l1.5-0.4
		C911.9,177.1,911.2,174.1,910.4,171.2z"/>
	<path fill="#FFFFFF" d="M695.6,89.4l-0.8-2.9c0,0-2.9,0.8-5.8,1.6c-0.1,0-0.1,0-0.2,0c-0.7-0.8-2.2-2.4-3.8-3.9
		c-1.1-1.1-2.2-2.1-3-2.9c-0.8-0.8-1.4-1.3-1.4-1.3l-2,2.2c0,0,0.6,0.5,1.4,1.2c0.8,0.7,1.9,1.8,3,2.8c1,0.9,1.9,1.9,2.6,2.7
		c-1.4,0.4-2.4,0.7-2.4,0.7l0.9,2.9c0,0,2.9-0.9,5.7-1.7C692.7,90.2,695.6,89.4,695.6,89.4z"/>
	<path fill="#FFFFFF" d="M730.2,79.3l0.4,3c0,0,3-0.4,5.9-0.8c3-0.4,5.9-0.7,5.9-0.7l-0.3-3c0,0-3,0.3-6,0.7
		C733.2,78.8,730.2,79.3,730.2,79.3z"/>
	<path fill="#FFFFFF" d="M703.3,108.5c0,0-1.4-2.7-3-5.3c-0.8-1.3-1.6-2.6-2.3-3.5c-0.7-0.9-1.1-1.6-1.1-1.6l-2.5,1.7
		c0,0,0.4,0.6,1.1,1.5c0.6,0.9,1.4,2.1,2.2,3.4c1.6,2.5,2.9,5.1,2.9,5.1L703.3,108.5z"/>
	<path fill="#FFFFFF" d="M681.4,208.4c-0.8,0.8-1.8,1.8-2.9,2.9c-2.1,2.1-4.4,4-4.4,4l2,2.3c0,0,2.3-2,4.5-4.1
		c1.1-1.1,2.2-2.1,3-2.9c0.8-0.8,1.3-1.4,1.3-1.4l-2.2-2.1C682.7,207,682.2,207.6,681.4,208.4z"/>
	<path fill="#FFFFFF" d="M696.4,195c0.9-1.2,1.7-2.5,2.3-3.5c0.6-1,1-1.6,1-1.6l-2.6-1.6c0,0-0.4,0.6-1,1.6
		c-0.6,0.9-1.4,2.2-2.3,3.4c-1.7,2.4-3.5,4.8-3.5,4.8l2.4,1.8C692.8,199.9,694.6,197.5,696.4,195z"/>
	<path fill="#FFFFFF" d="M826,84.1l-0.9,2.9c0,0,0.7,0.2,1.8,0.5c1.1,0.3,2.5,0.8,3.9,1.3c2.8,1,5.6,2,5.6,2l1.1-2.8
		c0,0-2.8-1.1-5.7-2.1c-1.4-0.5-2.9-1-4-1.3C826.7,84.3,826,84.1,826,84.1z"/>
	<path fill="#FFFFFF" d="M754.2,76.8l0.2,3c0,0,3-0.2,6-0.3c3-0.1,6-0.1,6-0.1l0-3c0,0-3,0-6,0.1C757.2,76.6,754.2,76.8,754.2,76.8z
		"/>
	<path fill="#FFFFFF" d="M802.4,78.8l-0.5,3c0,0,0.7,0.1,1.8,0.3c1.1,0.2,2.6,0.4,4,0.7c2.9,0.6,5.8,1.2,5.8,1.2l0.7-3
		c0,0-3-0.7-5.9-1.2c-1.5-0.3-3-0.5-4.1-0.7C803.1,78.9,802.4,78.8,802.4,78.8z"/>
	<path fill="#FFFFFF" d="M778.2,79.5c0,0,3,0.1,6,0.3c3,0.2,5.9,0.5,5.9,0.5l0.3-3c0,0-3-0.3-6-0.5c-3-0.2-6-0.3-6-0.3L778.2,79.5z"
		/>
	<path fill="#FFFFFF" d="M712.9,149.7c0.1-1.5,0.1-3.1,0.1-4.2c0-1.1,0-1.9,0-1.9l-3,0.1c0,0,0,0.7,0,1.8c0,1.1,0,2.6-0.1,4
		c-0.1,2.9-0.6,5.9-0.6,5.9l3,0.4C712.3,155.8,712.7,152.8,712.9,149.7z"/>
	<path fill="#FFFFFF" d="M133,160.9l-0.6,2.9c0,0,0.7,0.2,1.9,0.4c1.1,0.2,2.6,0.5,4.1,0.7c3,0.5,6,0.8,6,0.8l0.3-3
		c0,0-2.9-0.3-5.9-0.8c-1.5-0.2-2.9-0.5-4-0.7C133.7,161.1,133,160.9,133,160.9z"/>
	<path fill="#FFFFFF" d="M56.5,107.3c0,0,1.7,2.5,3.4,5c1.8,2.5,3.6,4.9,3.6,4.9l2.4-1.8c0,0-1.8-2.4-3.5-4.8
		c-1.7-2.4-3.4-4.9-3.4-4.9L56.5,107.3z"/>
	<path fill="#FFFFFF" d="M90.6,140.9l-1.9,2.4c0,0,0.6,0.5,1.5,1.2c0.9,0.7,2.1,1.6,3.4,2.5c2.5,1.8,5.1,3.4,5.1,3.4l1.6-2.5
		c0,0-2.5-1.6-4.9-3.3c-1.2-0.9-2.4-1.7-3.3-2.4C91.2,141.3,90.6,140.9,90.6,140.9z"/>
	<path fill="#FFFFFF" d="M74.7,125.9c-0.7-0.8-1.2-1.4-1.2-1.4l-2.2,2c0,0,0.5,0.6,1.3,1.4c0.8,0.8,1.8,2,2.8,3
		c2.1,2.2,4.3,4.3,4.3,4.3l2.1-2.2c0,0-2.1-2-4.2-4.2C76.4,127.8,75.4,126.7,74.7,125.9z"/>
	<path fill="#FFFFFF" d="M110.6,153.4l-1.3,2.7c0,0,0.7,0.3,1.7,0.8c1,0.5,2.4,1.1,3.9,1.6c2.8,1.1,5.7,2.1,5.7,2.1l0.9-2.8
		c0,0-2.8-0.9-5.6-2c-1.4-0.5-2.7-1.1-3.7-1.6C111.3,153.7,110.6,153.4,110.6,153.4z"/>
	<path fill="#FFFFFF" d="M205.3,156.5c-1.1,0.3-1.8,0.5-1.8,0.5l0.8,2.9c0,0,0.7-0.2,1.8-0.5c1.1-0.3,2.5-0.8,4-1.2
		c2.9-0.9,5.7-1.9,5.7-1.9l-1-2.8c0,0-2.8,1-5.7,1.8C207.8,155.8,206.3,156.2,205.3,156.5z"/>
	<path fill="#FFFFFF" d="M182.1,161.7c-1.1,0.2-1.8,0.3-1.8,0.3l0.4,3c0,0,0.7-0.1,1.9-0.3c1.1-0.2,2.6-0.4,4.1-0.7
		c3-0.5,5.9-1.2,5.9-1.2l-0.6-2.9c0,0-2.9,0.6-5.8,1.1C184.6,161.3,183.2,161.5,182.1,161.7z"/>
	<path fill="#FFFFFF" d="M226.1,149.4l1.1,2.8c0,0,2.8-1.1,5.6-2.2c2.8-1.1,5.6-2.3,5.6-2.3l-1.2-2.8c0,0-2.7,1.2-5.5,2.3
		C228.9,148.3,226.1,149.4,226.1,149.4z"/>
	<path fill="#FFFFFF" d="M158.4,163.5c-1.1,0-1.9,0-1.9,0l0,3c0,0,0.8,0,1.9,0c1.1,0,2.7,0,4.2,0c3-0.1,6.1-0.3,6.1-0.3l-0.2-3
		c0,0-3,0.2-5.9,0.3C161,163.5,159.5,163.5,158.4,163.5z"/>
	<path fill="#FFFFFF" d="M883.6,301.1c0.8-0.7,1.6-1.4,1.6-1.4l0,0C885.2,299.7,884.4,300.4,883.6,301.1c-0.8,0.7-1.7,1.4-1.7,1.4
		l0,0C882,302.5,882.8,301.8,883.6,301.1z"/>
	<path fill="#FFFFFF" d="M917.3,236.8l-0.6,0c0,0-0.2,3-0.7,5.9c-0.5,2.9-1.2,5.9-1.2,5.9l0.7,0.2c0,0,0.8-2.9,1.3-5.9
		c0.2-1.3,0.4-2.6,0.5-3.6V236.8z"/>
	<path fill="#FFFFFF" d="M917.1,212.8l-1.1,0.1c0,0,0.2,3,0.4,6c0.2,3,0.3,6,0.3,6l0.6,0v-8.4C917.2,214.4,917.1,212.8,917.1,212.8z
		"/>
	<path fill="#FFFFFF" d="M44,86.7c0,0,1.5,2.6,3,5.2c1.5,2.6,3.1,5.2,3.1,5.2l2.6-1.5c0,0-1.5-2.6-3-5.1c-1.5-2.6-2.9-5.2-2.9-5.2
		L44,86.7z"/>
	<path fill="#FFFFFF" d="M0,1.5c0,0,1.5,2.6,3,5.2c1.5,2.6,2.9,5.2,2.9,5.2l2.6-1.4c0,0-1.5-2.6-3-5.2C4,2.6,2.4,0,2.4,0L0,1.5z"/>
	
		<rect x="35.4" y="64" transform="matrix(-0.8914 0.4533 -0.4533 -0.8914 101.6103 115.7069)" fill="#FFFFFF" width="3" height="12"/>
	<polygon fill="#FFFFFF" points="17,33.1 19.7,31.7 14.3,21 11.6,22.4 	"/>
	<path fill="#FFFFFF" d="M602.9,51.1l0.4-3c0,0-3-0.4-6-0.8c-3-0.4-6-0.6-6-0.6l-0.3,3c0,0,3,0.3,5.9,0.6
		C599.9,50.7,602.9,51.1,602.9,51.1z"/>
	<polygon fill="#FFFFFF" points="27.6,54.6 30.3,53.3 25,42.5 22.3,43.8 	"/>
	
		<rect x="519.3" y="46.5" transform="matrix(-0.9971 7.674190e-02 -7.674190e-02 -0.9971 1052.6586 55.6119)" fill="#FFFFFF" width="12" height="3"/>
	
		<rect x="495.4" y="49" transform="matrix(-0.9916 0.1295 -0.1295 -0.9916 1005.1063 35.6603)" fill="#FFFFFF" width="12" height="3"/>
	
		<rect x="471.7" y="52.7" transform="matrix(-0.9839 0.1786 -0.1786 -0.9839 957.3726 22.2507)" fill="#FFFFFF" width="12" height="3"/>
	
		<rect x="543.2" y="45.4" transform="matrix(-0.9998 2.050796e-02 -2.050796e-02 -0.9998 1099.3002 82.4469)" fill="#FFFFFF" width="12" height="3"/>
	
		<rect x="448.2" y="57.5" transform="matrix(-0.9746 0.2238 -0.2238 -0.9746 910.0552 14.9589)" fill="#FFFFFF" width="12" height="3"/>
	<path fill="#FFFFFF" d="M603.7,131.2c2.4-1.7,4.9-3.4,4.9-3.4l-1.7-2.5c0,0-2.5,1.7-5,3.4c-1.2,0.9-2.5,1.8-3.4,2.4
		c-0.9,0.7-1.5,1.1-1.5,1.1l1.8,2.4c0,0,0.6-0.4,1.5-1.1C601.2,133,602.4,132.1,603.7,131.2z"/>
	<path fill="#FFFFFF" d="M561.8,214.9c0.2,0.6,0.3,1,0.4,1.3c0.1,0.3,0.2,0.5,0.2,0.5l2.8-1c0,0-0.1-0.2-0.2-0.5
		c-0.1-0.3-0.2-0.7-0.4-1.3c-0.3-1-0.7-2.4-1.1-3.9c-0.7-2.8-1-5.8-1-5.8l-3,0.4c0,0,0.4,3.1,1.1,6.1
		C561,212.4,561.5,213.8,561.8,214.9z"/>
	<path fill="#FFFFFF" d="M563,186.9c0.5-2.9,1.2-5.7,1.2-5.7l-2.9-0.8c0,0-0.8,3-1.3,6c-0.2,1.5-0.4,3-0.5,4.2
		c-0.1,1.1-0.2,1.9-0.2,1.9l3,0.2c0,0,0.1-0.7,0.2-1.8C562.6,189.8,562.7,188.4,563,186.9z"/>
	
		<rect x="356.7" y="86.4" transform="matrix(-0.9298 0.3682 -0.3682 -0.9298 732.3167 36.0837)" fill="#FFFFFF" width="12" height="3"/>
	
		<rect x="334.5" y="95.6" transform="matrix(-0.9182 0.3962 -0.3962 -0.9182 691.6761 51.2852)" fill="#FFFFFF" width="12" height="3"/>
	
		<rect x="312.6" y="105.4" transform="matrix(-0.9068 0.4215 -0.4215 -0.9068 652.6525 69.53)" fill="#FFFFFF" width="12" height="3"/>
	<polygon fill="#FFFFFF" points="292.3,121.3 303,116 301.7,113.3 291,118.6 	"/>
	
		<rect x="269.6" y="126.6" transform="matrix(-0.8919 0.4522 -0.4522 -0.8919 579.2848 117.696)" fill="#FFFFFF" width="12" height="3"/>
	
		<rect x="248.1" y="137.2" transform="matrix(-0.9021 0.4316 -0.4316 -0.9021 543.1306 154.2326)" fill="#FFFFFF" width="12" height="3"/>
	
		<rect x="401.9" y="70.2" transform="matrix(-0.953 0.3029 -0.3029 -0.953 818.3784 16.566)" fill="#FFFFFF" width="12" height="3"/>
	
		<rect x="424.9" y="63.4" transform="matrix(-0.9642 0.2652 -0.2652 -0.9642 863.6138 13.2538)" fill="#FFFFFF" width="12" height="3"/>
	
		<rect x="379.2" y="77.9" transform="matrix(-0.9414 0.3372 -0.3372 -0.9414 774.569 24.3456)" fill="#FFFFFF" width="12" height="3"/>
</g>
</svg>
