<?xml version="1.0" encoding="utf-8"?>
<!-- Generator: Adobe Illustrator 18.1.1, SVG Export Plug-In . SVG Version: 6.00 Build 0)  -->
<!DOCTYPE svg PUBLIC "-//W3C//DTD SVG 1.1//EN" "http://www.w3.org/Graphics/SVG/1.1/DTD/svg11.dtd">
<svg version="1.1" id="Layer_1" xmlns="http://www.w3.org/2000/svg" xmlns:xlink="http://www.w3.org/1999/xlink" x="0px" y="0px"
	 width="679.5px" height="419px" viewBox="-659 491 679.5 419" enable-background="new -659 491 679.5 419" xml:space="preserve">
<g>
	<g>
		<path fill="#272525" d="M-256.6,599.9c-0.2-2.6-0.3-4.8-0.4-6.9c-2.5,0.3-5.1,0.3-7.5,1.1c-1.5,0.4-2.9,1.7-4,3
			c-9.1,10.7-22.9,11.9-34.7,17.1c-0.9,0.4-1.9,0.3-2.9,0.4c-0.2-0.5-0.4-1.1-0.6-1.6c6.3-2.7,12.7-5.2,18.9-8.3
			c5.5-2.7,11.4-5.4,16-9.3c8.6-7.4,13.8-8.7,24.2-3.8c2.3,1.1,4.6,2,6.9,3c7.1,3.3,11.1,2.1,15.2-4.6c3.1-5,8.9-6.7,14.1-3.9
			c4.4,2.4,8.6,5,13.8,8.1c1.4-1.5,3.3-3.3,4.9-5.4c4.3-5.7,8.6-6.8,14.4-2.8c7.7,5.3,15.5,8.4,25.3,5.8c3.5-1,8.1,0.1,11.6,1.6
			c6.9,2.8,13.4,6.5,19.9,11c-3.3-0.4-6.6-0.7-9.9-1.1c0.2,0.4,0.3,0.8,0.5,1.1c-1.2,0.6-2.6,1.9-3.5,1.6
			c-5.8-1.6-11.5-3.6-17.7-5.6c-0.4,1.8-0.7,3-0.9,4.1c-4.9-2.8-9.5-5.5-14.4-8.4c-3,4.9-5.2,5.8-8.5,0.2c-1.9-3.3-6.2-5.3-10.9-9.8
			c-2.7,3.5-5.5,7-8.7,11.2c3.7,1.7,7.2,2.8,10.3,4.7c3.2,1.9,5.9,4.6,8.8,6.9c-3.8,1.3-23.1-8-30.9-14.6c-2.4,1.4-4.6,2.7-6.9,4
			c0-2.7,0-5.3,0-9.6c-2.1,0.8-4.7,1.1-6.4,2.5c-6.6,5.5-12.5,11.9-19.4,16.8c-6.3,4.4-13.7,7.3-20.6,10.9c-0.5-0.9-1-1.9-1.6-2.8
			c3.1-1.7,6.3-3.4,9.3-5.2c2.5-1.6,5.4-3,7.2-5.2c1-1.3,0.8-4.5-0.2-6c-0.8-1.2-3.5-1.7-5.4-1.6
			C-253.2,598.3-255.1,599.4-256.6,599.9z"/>
		<path fill="#272525" d="M-225.1,634.7c0.5-0.7,1.1-1.7,2.2-3.3c-4.6-1-8.8-1.9-13.8-2.9c0.1,0.2-0.3-0.8-1-2.8
			c-6.3,3.4-12.7,6.1-18.2,10.1c-5.7,4.1-11.5,6.9-18.6,7.2c7.9-5.1,15.9-10,23.7-15.4c7-4.9,14-8.1,22.7-4.3c1,0.4,3-0.3,3.9-1.1
			c9.1-8.1,18.3-4.9,27.2-0.2c8,4.2,15.6,9.1,23.2,14.2c-10.9-0.2-21.5-1.1-30.6-7.5c-1.9-1.3-2.9-3.9-4.7-5.5
			c-5.8-5.1-9.7-1.7-14,4.7c6.7,2.2,13,4.2,19.3,6.2c0.2-0.6,0.4-1.1,0.5-1.7c1,2.1,2.1,4.2,3.5,7.2
			C-208.4,637.5-217.4,643-225.1,634.7z"/>
	</g>
</g>
<g>
	<g>
		<path fill="#272525" d="M-430.2,665.8c-9.6-2-19.3-3.9-28.9-5.9c-0.4-0.9-0.8-1.8-1.1-2.7c1.6-0.4,3.2-0.8,4.8-1.2
			c-0.4-0.5-0.8-1-1.2-1.5c-2.2,0.8-4.4,1.5-6.9,2.4c-3.5-5.4-14.9-3.8-14.4-15.6c-3.2,3.1-6.3,6.3-9.1,9c-5.5-3.2-7.6,3.7-11.8,3.6
			c2.8,11.2,12.5,14.7,21.4,8.2c5.7-4.1,11.1-2.4,17.8,6c-3.3,0-6.2,0-9.5,0c0-1.6,0-3.1,0-5.7c-5,2.4-9.2,4.4-14.3,6.8
			c5.3,4,9.7,7.7,14.5,10.8c4.6,3,9.6,5.2,14.1,8.6c-10-1.5-20.8,0.3-28.4-9c-6.4-7.8-6.6-7.7-15.2-2.1c-0.7-2.9-2-5.5-1.9-8
			c0.2-7.2-4.5-9.7-10.1-11.6c-3.6-1.2-11.1-6.3-14.5-9.8c-0.4-0.4-1.3-1-1.7-0.8c-3.9,2.2-8,4.1-11.3,7c-1.6,1.4-1.9,4.5-3.4,8.6
			c-1.2-0.1-4.2-0.8-7.1-0.6c-1.9,0.1-4.4,0.7-5.5,2.1c-4.3,5.4-8.1,11.2-12.8,17.8c4.4,3.9,8.7,7.8,13,11.7
			c-0.2,0.4-0.4,0.7-0.6,1.1c-5.6-3.5-11.2-6.9-16.9-10.4c-7.6,4.1-16,8.7-24.4,13.2c-0.5-0.8-1-1.6-1.4-2.4c1.9-1.5,3.8-3,5.9-4.3
			c6.9-4.4,14.3-8.2,20.8-13.2c4-3.1,6.2-8.4,10-12c3.3-3.1,7.7-5.1,11.5-7.6c1.7-1.1,3.4-2.4,5.1-3.6c5.4-3.8,10.8-7.5,16.2-11.3
			c1.5-1.1,3-2.4,4.2-3.9c5.4-6.1,11.1-5.5,15.1,1.7c0.7,1.3,1.3,2.8,2.1,4c2.5,3.7,4.8,5.3,9.5,1.7c5.1-3.9,11.2-6.7,17.3-8.9
			c5.5-2,9.1,2.2,12.8,5.8c2.5,2.5,6,4.2,9.2,5.9c6.3,3.2,12.8,6.1,19.1,9.3c2.9,1.4,5.6,3.3,8.3,5
			C-430,664.5-430.1,665.1-430.2,665.8z M-523.2,646.4c0.6,1.1,1.1,2.1,1.7,3.2c3.3-0.8,6.6-1.6,9.9-2.4c-1.1-2.4-2.2-4.7-3.4-7.1
			C-517.7,642.2-520.4,644.3-523.2,646.4z"/>
		<path fill="#272525" d="M-490.3,692.8c-10-1-20-2-31-3.1c1.8-1.7,3.8-3,4.9-4.7c1.1-1.8,1.3-4.2,1.9-6.4c-0.5-0.4-1-0.7-1.5-1.1
			c-4.6,3.9-9.1,7.8-15,12.7c4.3-10.4,13.4-16.4,19.5-14c1,0.4,2.1,0.8,2.9,1.4c5.6,4.3,11.1,8.7,16.7,13c1,0.7,2.3,1,3.5,1.4
			C-489,692.3-489.7,692.5-490.3,692.8z"/>
	</g>
</g>
<g>
	<g>
		<path fill="#272525" d="M-345.9,772.7c3-2.9,6-5.7,9-8.6c-0.3-0.4-0.7-0.8-1-1.3c-7.4,2.5-14.8,4.9-22.2,7.4
			c-0.2-0.7-0.5-1.4-0.7-2.1c3-1,6-2,9-3.1c2.5-0.9,5.2-1.7,7.2-3.3c3.8-2.9,7.2-6,12.4-3.1c0.7,0.4,2.4-0.1,3.1-0.7
			c5.6-4.9,11.3-9.8,16.6-15.1c4.4-4.4,6.4-4.6,10.6,0c5,5.5,9.9,11,15.2,16.2c2.1,2.1,5.1,3.4,7.7,4.9c1.7,1,3.6,1.7,5.4,2.5
			c-0.1,0.6-0.2,1.3-0.3,1.9c-5.7,0-11.5,0-17.2,0c-0.2,0.6-0.4,1.1-0.6,1.7c-1.8-2.8-3.5-5.6-5.3-8.3c-1.1-1.7-2.3-3.2-3.5-4.8
			c-2.7-3.7-5.5-7.5-8.8-12c-6.4,5.9-13.6,12.8-21.2,19.3c-4.5,3.8-9.6,6.7-14.4,10.1C-345.3,773.7-345.6,773.2-345.9,772.7z"/>
		<path fill="#272525" d="M-367.8,723.1c0.1-0.7,0.1-1.4,0.4-1.7c5.9-5.1,11.7-10.3,18-14.9c1.4-1,5.6-0.9,6.4,0.2
			c5.3,7.5,13.5,10.3,20.9,14.5c0.5,0.3,0.8,0.8,2.2,2.3c-2.9-0.2-4.9,0.3-6.2-0.5c-4.7-3-10.9-1.9-15.3-6.2
			c-1.4-1.4-5.8,0.4-10.1-0.4c2.4-1.5,4.8-3.1,7.3-4.6c-0.6-0.7-1.1-1.5-1.7-2.2C-354.2,712.1-358.8,721.5-367.8,723.1z"/>
		<path fill="#272525" d="M-298.8,780.8c-4.5,2.3-8.9,4.7-13.4,7c-0.3-0.6-0.6-1.1-1-1.7c4.3-3.3,8.5-6.7,13-9.7
			c1.1-0.7,3.4-0.2,4.9,0.4c3.9,1.6,7.6,3.6,11.3,5.6c1,0.5,1.7,1.9,2.1,3c0.1,0.4-0.9,1.6-1.7,1.8
			C-287,788.6-297.4,784.1-298.8,780.8z"/>
		<path fill="#272525" d="M-324.2,774.2c5.6-3.5,11.1-7.2,16.9-10.1c1.6-0.8,4.9,0.5,6.8,1.8c3.9,2.7,7.3,6,11.3,9.4
			c-5.5-0.4-10.6-0.8-15.9-1.2c-0.4-1.5-0.9-3.8-1.7-7c-5.8,3.4-11,6.4-16.1,9.3C-323.4,775.6-323.8,774.9-324.2,774.2z"/>
	</g>
</g>
<path fill="none" stroke="#FFFFFF" stroke-width="2" stroke-miterlimit="10" stroke-dasharray="12" d="M-571.9,491.1
	c-2.8,41.8-16.9,82.7-40.5,117.3c-14.3,21-32.2,40.1-40.7,64c-13.1,36.8,0.6,81.4,32.1,104.5c27.3,20,64.3,23.3,97,14.6
	s61.6-28,87.3-50c18.8-16.1,36.6-34.3,47.5-56.5c7.2-14.7,11.2-30.7,17.7-45.8c28.3-66.1,100.8-104.6,172.3-113.2
	c24-2.9,49.2-2.9,71.4,6.7c22.2,9.6,40.7,30.6,41.5,54.8c0.8,25.2-16.7,47.1-35.4,64c-15.8,14.3-33.2,26.9-51.7,37.6
	c-16,9.2-33.1,17.2-46.1,30.1c-13.1,13-21.5,32.8-15.1,50.1c7.5,20.1,30.7,28.7,51.2,34.9c51.3,15.4,102.7,30.9,154,46.3
	c14,4.2,28.7,8.8,38.9,19.3c10.3,10.4,14.1,28.7,4.4,39.6"/>
<path fill="#272525" d="M-85.9,729.9c0.4-0.6,0.9-1.3,1.7-2.5c-3.5-0.7-6.7-1.4-10.5-2.2c0.1,0.2-0.2-0.6-0.8-2.1
	c-4.8,2.6-9.7,4.7-13.9,7.7c-4.3,3.1-8.8,5.2-14.1,5.5c6-3.9,12.1-7.6,18-11.7c5.3-3.7,10.7-6.1,17.3-3.3c0.8,0.3,2.3-0.2,3-0.8
	c6.9-6.1,13.9-3.7,20.7-0.1c6.1,3.2,11.9,7,17.7,10.8c-8.3-0.1-16.4-0.9-23.3-5.7c-1.4-1-2.2-3-3.6-4.2c-4.4-3.9-7.4-1.3-10.7,3.6
	c5.1,1.7,9.9,3.2,14.7,4.8c0.1-0.4,0.3-0.8,0.4-1.3c0.8,1.6,1.6,3.2,2.7,5.5C-73.2,732-80.1,736.2-85.9,729.9z"/>
</svg>
