<?xml version="1.0" encoding="utf-8"?>
<!-- Generator: Adobe Illustrator 18.1.1, SVG Export Plug-In . SVG Version: 6.00 Build 0)  -->
<!DOCTYPE svg PUBLIC "-//W3C//DTD SVG 1.1//EN" "http://www.w3.org/Graphics/SVG/1.1/DTD/svg11.dtd">
<svg version="1.1" id="Layer_1" xmlns="http://www.w3.org/2000/svg" xmlns:xlink="http://www.w3.org/1999/xlink" x="0px" y="0px"
	 width="989.3px" height="264.7px" viewBox="0 0 989.3 264.7" enable-background="new 0 0 989.3 264.7" xml:space="preserve">
<g>
	<path fill="#272525" d="M811.2,60.9c-0.2-2.6-0.3-4.8-0.4-6.9c-2.5,0.3-5.1,0.3-7.5,1.1c-1.5,0.4-2.9,1.7-4,3
		c-9.1,10.7-22.9,11.9-34.7,17.1c-0.9,0.4-1.9,0.3-2.9,0.4c-0.2-0.5-0.4-1.1-0.6-1.6c6.3-2.7,12.7-5.2,18.9-8.3
		c5.5-2.7,11.4-5.4,16-9.3c8.6-7.4,13.8-8.7,24.2-3.8c2.3,1.1,4.6,2,6.9,3c7.1,3.3,11.1,2.1,15.2-4.6c3.1-5,8.9-6.7,14.1-3.9
		c4.4,2.4,8.6,5,13.8,8.1c1.4-1.5,3.3-3.3,4.9-5.4c4.3-5.7,8.6-6.8,14.4-2.8c7.7,5.3,15.5,8.4,25.3,5.8c3.5-1,8.1,0.1,11.6,1.6
		c6.9,2.8,13.4,6.5,19.9,11c-3.3-0.4-6.6-0.7-9.9-1.1c0.2,0.4,0.3,0.8,0.5,1.1c-1.2,0.6-2.6,1.9-3.5,1.6c-5.8-1.6-11.5-3.6-17.7-5.6
		c-0.4,1.8-0.7,3-0.9,4.1c-4.9-2.8-9.5-5.5-14.4-8.4c-3,4.9-5.2,5.8-8.5,0.2c-1.9-3.3-6.2-5.3-10.9-9.8c-2.7,3.5-5.5,7-8.7,11.2
		c3.7,1.7,7.2,2.8,10.3,4.7c3.2,1.9,5.9,4.6,8.8,6.9c-3.8,1.3-23.1-8-30.9-14.6c-2.4,1.4-4.6,2.7-6.9,4c0-2.7,0-5.3,0-9.6
		c-2.1,0.8-4.7,1.1-6.4,2.5c-6.6,5.5-12.5,11.9-19.4,16.8c-6.3,4.4-13.7,7.3-20.6,10.9c-0.5-0.9-1-1.9-1.6-2.8
		c3.1-1.7,6.3-3.4,9.3-5.2c2.5-1.6,5.4-3,7.2-5.2c1-1.3,0.8-4.5-0.2-6c-0.8-1.2-3.5-1.7-5.4-1.6C814.6,59.2,812.7,60.3,811.2,60.9z"
		/>
	<path fill="#272525" d="M842.7,95.7c0.5-0.7,1.1-1.7,2.2-3.3c-4.6-1-8.8-1.9-13.8-2.9c0.1,0.2-0.3-0.8-1-2.8
		c-6.3,3.4-12.7,6.1-18.2,10.1c-5.7,4.1-11.5,6.9-18.6,7.2c7.9-5.1,15.9-10,23.7-15.4c7-4.9,14-8.1,22.7-4.3c1,0.4,3-0.3,3.9-1.1
		c9.1-8.1,18.3-4.9,27.2-0.2c8,4.2,15.6,9.1,23.2,14.2C883,97,872.4,96,863.3,89.6c-1.9-1.3-2.9-3.9-4.7-5.5
		c-5.8-5.1-9.7-1.7-14,4.7c6.7,2.2,13,4.2,19.3,6.2c0.2-0.6,0.4-1.1,0.5-1.7c1,2.1,2.1,4.2,3.5,7.2C859.4,98.5,850.4,104,842.7,95.7
		z"/>
	<path fill="#272525" d="M444,94c-9.6-2-19.3-3.9-28.9-5.9c-0.4-0.9-0.8-1.8-1.1-2.7c1.6-0.4,3.2-0.8,4.8-1.2
		c-0.4-0.5-0.8-1-1.2-1.5c-2.2,0.8-4.4,1.5-6.9,2.4c-3.5-5.4-14.9-3.8-14.4-15.6c-3.2,3.1-6.3,6.3-9.1,9c-5.5-3.2-7.6,3.7-11.8,3.6
		c2.8,11.2,12.5,14.7,21.4,8.2c5.7-4.1,11.1-2.4,17.8,6c-3.3,0-6.2,0-9.5,0c0-1.6,0-3.1,0-5.7c-5,2.4-9.2,4.4-14.3,6.8
		c5.3,4,9.7,7.7,14.5,10.8c4.6,3,9.6,5.2,14.1,8.6c-10-1.5-20.8,0.3-28.4-9c-6.4-7.8-6.6-7.7-15.2-2.1c-0.7-2.9-2-5.5-1.9-8
		c0.2-7.2-4.5-9.7-10.1-11.6c-3.6-1.2-11.1-6.3-14.5-9.8c-0.4-0.4-1.3-1-1.7-0.8c-3.9,2.2-8,4.1-11.3,7c-1.6,1.4-1.9,4.5-3.4,8.6
		c-1.2-0.1-4.2-0.8-7.1-0.6c-1.9,0.1-4.4,0.7-5.5,2.1c-4.3,5.4-8.1,11.2-12.8,17.8c4.4,3.9,8.7,7.8,13,11.7
		c-0.2,0.4-0.4,0.7-0.6,1.1c-5.6-3.5-11.2-6.9-16.9-10.4c-7.6,4.1-16,8.7-24.4,13.2c-0.5-0.8-1-1.6-1.4-2.4c1.9-1.5,3.8-3,5.9-4.3
		c6.9-4.4,14.3-8.2,20.8-13.2c4-3.1,6.2-8.4,10-12c3.3-3.1,7.7-5.1,11.5-7.6c1.7-1.1,3.4-2.4,5.1-3.6c5.4-3.8,10.8-7.5,16.2-11.3
		c1.5-1.1,3-2.4,4.2-3.9c5.4-6.1,11.1-5.5,15.1,1.7c0.7,1.3,1.3,2.8,2.1,4c2.5,3.7,4.8,5.3,9.5,1.7c5.1-3.9,11.2-6.7,17.3-8.9
		c5.5-2,9.1,2.2,12.8,5.8c2.5,2.5,6,4.2,9.2,5.9c6.3,3.2,12.8,6.1,19.1,9.3c2.9,1.4,5.6,3.3,8.3,5C444.2,92.8,444.1,93.4,444,94z
		 M351,74.7c0.6,1.1,1.1,2.1,1.7,3.2c3.3-0.8,6.6-1.6,9.9-2.4c-1.1-2.4-2.2-4.7-3.4-7.1C356.5,70.4,353.8,72.6,351,74.7z"/>
	<path fill="#272525" d="M383.9,121c-10-1-20-2-31-3.1c1.8-1.7,3.8-3,4.9-4.7c1.1-1.8,1.3-4.2,1.9-6.4c-0.5-0.4-1-0.7-1.5-1.1
		c-4.6,3.9-9.1,7.8-15,12.7c4.3-10.4,13.4-16.4,19.5-14c1,0.4,2.1,0.8,2.9,1.4c5.6,4.3,11.1,8.7,16.7,13c1,0.7,2.3,1,3.5,1.4
		C385.1,120.5,384.5,120.8,383.9,121z"/>
	<path fill="#272525" d="M571.9,162.6c3-2.9,6-5.7,9-8.6c-0.3-0.4-0.7-0.8-1-1.3c-7.4,2.5-14.8,4.9-22.2,7.4
		c-0.2-0.7-0.5-1.4-0.7-2.1c3-1,6-2,9-3.1c2.5-0.9,5.2-1.7,7.2-3.3c3.8-2.9,7.2-6,12.4-3.1c0.7,0.4,2.4-0.1,3.1-0.7
		c5.6-4.9,11.3-9.8,16.6-15.1c4.4-4.4,6.4-4.6,10.6,0c5,5.5,9.9,11,15.2,16.2c2.1,2.1,5.1,3.4,7.7,4.9c1.7,1,3.6,1.7,5.4,2.5
		c-0.1,0.6-0.2,1.3-0.3,1.9c-5.7,0-11.5,0-17.2,0c-0.2,0.6-0.4,1.1-0.6,1.7c-1.8-2.8-3.5-5.6-5.3-8.3c-1.1-1.7-2.3-3.2-3.5-4.8
		c-2.7-3.7-5.5-7.5-8.8-12c-6.4,5.9-13.6,12.8-21.2,19.3c-4.5,3.8-9.6,6.7-14.4,10.1C572.6,163.6,572.2,163.1,571.9,162.6z"/>
	<path fill="#272525" d="M550,113c0.1-0.7,0.1-1.4,0.4-1.7c5.9-5.1,11.7-10.3,18-14.9c1.4-1,5.6-0.9,6.4,0.2
		c5.3,7.5,13.5,10.3,20.9,14.5c0.5,0.3,0.8,0.8,2.2,2.3c-2.9-0.2-4.9,0.3-6.2-0.5c-4.7-3-10.9-1.9-15.3-6.2
		c-1.4-1.4-5.8,0.4-10.1-0.4c2.4-1.5,4.8-3.1,7.3-4.6c-0.6-0.7-1.1-1.5-1.7-2.2C563.6,102,559,111.4,550,113z"/>
	<path fill="#272525" d="M619,170.6c-4.5,2.3-8.9,4.7-13.4,7c-0.3-0.6-0.6-1.1-1-1.7c4.3-3.3,8.5-6.7,13-9.7
		c1.1-0.7,3.4-0.2,4.9,0.4c3.9,1.6,7.6,3.6,11.3,5.6c1,0.5,1.7,1.9,2.1,3c0.1,0.4-0.9,1.6-1.7,1.8
		C630.9,178.5,620.5,173.9,619,170.6z"/>
	<path fill="#272525" d="M593.6,164c5.6-3.5,11.1-7.2,16.9-10.1c1.6-0.8,4.9,0.5,6.8,1.8c3.9,2.7,7.3,6,11.3,9.4
		c-5.5-0.4-10.6-0.8-15.9-1.2c-0.4-1.5-0.9-3.8-1.7-7c-5.8,3.4-11,6.4-16.1,9.3C594.5,165.5,594,164.8,593.6,164z"/>
	<path fill="#272525" d="M167.2,163.3c0.4-0.6,0.9-1.3,1.7-2.5c-3.5-0.7-6.7-1.4-10.5-2.2c0.1,0.2-0.2-0.6-0.8-2.1
		c-4.8,2.6-9.7,4.7-13.9,7.7c-4.3,3.1-8.8,5.2-14.1,5.5c6-3.9,12.1-7.6,18-11.7c5.3-3.7,10.7-6.1,17.3-3.3c0.8,0.3,2.3-0.2,3-0.8
		c6.9-6.1,13.9-3.7,20.7-0.1c6.1,3.2,11.9,7,17.7,10.8c-8.3-0.1-16.4-0.9-23.3-5.7c-1.4-1-2.2-3-3.6-4.2c-4.4-3.9-7.4-1.3-10.7,3.6
		c5.1,1.7,9.9,3.2,14.7,4.8c0.1-0.4,0.3-0.8,0.4-1.3c0.8,1.6,1.6,3.2,2.7,5.5C180,165.5,173.1,169.7,167.2,163.3z"/>
	<path fill="#272525" d="M871.6,187.4c0.4-0.6,0.9-1.3,1.7-2.5c-3.5-0.7-6.7-1.4-10.5-2.2c0.1,0.2-0.2-0.6-0.8-2.1
		c-4.8,2.6-9.7,4.7-13.9,7.7c-4.3,3.1-8.8,5.2-14.1,5.5c6-3.9,12.1-7.6,18-11.7c5.3-3.7,10.7-6.1,17.3-3.3c0.8,0.3,2.3-0.2,3-0.8
		c6.9-6.1,13.9-3.7,20.7-0.1c6.1,3.2,11.9,7,17.7,10.8c-8.3-0.1-16.4-0.9-23.3-5.7c-1.4-1-2.2-3-3.6-4.2c-4.4-3.9-7.4-1.3-10.7,3.6
		c5.1,1.7,9.9,3.2,14.7,4.8c0.1-0.4,0.3-0.8,0.4-1.3c0.8,1.6,1.6,3.2,2.7,5.5C884.3,189.5,877.5,193.7,871.6,187.4z"/>
	<path fill="#272525" d="M793.2,174.4c0.1-0.7,0.1-1.4,0.4-1.7c5.9-5.1,11.7-10.3,18-14.9c1.4-1,5.6-0.9,6.4,0.2
		c5.3,7.5,13.5,10.3,20.9,14.5c0.5,0.3,0.8,0.8,2.2,2.3c-2.9-0.2-4.9,0.3-6.2-0.5c-4.7-3-10.9-1.9-15.3-6.2
		c-1.4-1.4-5.8,0.4-10.1-0.4c2.4-1.5,4.8-3.1,7.3-4.6c-0.6-0.7-1.1-1.5-1.7-2.2C806.8,163.4,802.2,172.8,793.2,174.4z"/>
	<g>
		<path fill="#FFFFFF" d="M222.3,196.8c-0.8,0.8-1.8,1.8-2.9,2.8c-2.1,2-4.4,3.9-4.4,3.9l1.9,2.3c0,0,2.4-1.9,4.6-4
			c1.1-1,2.2-2.1,3-2.9c0.8-0.8,1.3-1.4,1.3-1.4l-2.2-2.1C223.6,195.5,223.1,196,222.3,196.8z"/>
		<path fill="#FFFFFF" d="M222.4,0C222.3,0,222.3,0.1,222.4,0c-0.8,1-1.7,2.2-2.6,3.5c-1.8,2.5-3.3,5.1-3.3,5.1l2.6,1.5
			c0,0,1.5-2.5,3.2-4.9c0.9-1.2,1.7-2.4,2.4-3.2c0.7-0.9,1.2-1.4,1.2-1.4L225.2,0H222.4z"/>
		<path fill="#FFFFFF" d="M219.6,77.5l2.5-1.7c0,0-1.7-2.5-3.2-5c-0.8-1.3-1.5-2.5-2-3.5c-0.5-1-0.9-1.6-0.9-1.6l-2.7,1.4
			c0,0,0.4,0.7,0.9,1.7c0.6,1,1.3,2.3,2.1,3.6C218,75,219.6,77.5,219.6,77.5z"/>
		<path fill="#FFFFFF" d="M209.8,45.3c0-0.5-0.1-1-0.1-1.3c0-0.3,0-0.5,0-0.5l-3,0.2c0,0,0,0.2,0,0.5c0,0.3,0.1,0.8,0.1,1.4
			c0.1,1.2,0.3,2.7,0.5,4.2c0.5,3.1,1.4,6,1.4,6l2.9-0.8c0,0-0.8-2.8-1.3-5.7C210.1,47.8,209.9,46.4,209.8,45.3z"/>
		<path fill="#FFFFFF" d="M211,19.5c0,0-0.3,0.7-0.7,1.8c-0.4,1.1-0.9,2.5-1.3,4c-0.9,2.9-1.4,6-1.4,6l3,0.5c0,0,0.5-2.9,1.3-5.7
			c0.4-1.4,0.9-2.8,1.2-3.8c0.4-1,0.7-1.7,0.7-1.7L211,19.5z"/>
		<path fill="#FFFFFF" d="M245.4,118.1c0,0-0.8-2.9-1.8-5.8c-0.5-1.4-1.1-2.9-1.5-3.9c-0.4-1-0.7-1.8-0.7-1.8l-2.8,1.2
			c0,0,0.3,0.7,0.7,1.7c0.4,1,1,2.4,1.5,3.8c1,2.8,1.8,5.6,1.8,5.6L245.4,118.1z"/>
		<path fill="#FFFFFF" d="M235.6,95.8c0,0-1.6-2.6-3.3-5.1c-1.7-2.5-3.4-5-3.4-5l-2.5,1.7c0,0,1.7,2.5,3.4,4.9c1.7,2.5,3.2,5,3.2,5
			L235.6,95.8z"/>
		<path fill="#FFFFFF" d="M244,155.7c-0.2,1.1-0.5,2.5-0.9,4c-0.7,2.9-1.6,5.7-1.6,5.7l2.9,0.9c0,0,1-2.9,1.7-5.9
			c0.4-1.5,0.7-3,0.9-4.1c0.2-1.1,0.3-1.9,0.3-1.9l-3-0.5C244.3,153.9,244.2,154.6,244,155.7z"/>
		<path fill="#FFFFFF" d="M248,132c-0.1-1.1-0.2-1.9-0.2-1.9l-3,0.4c0,0,0.1,0.7,0.2,1.8c0.1,1.1,0.2,2.6,0.3,4
			c0.2,2.9,0.1,5.9,0.1,5.9l3,0.1c0,0,0.1-3.1-0.1-6.1C248.2,134.6,248.1,133.1,248,132z"/>
		<path fill="#FFFFFF" d="M203.9,211.5c-0.9,0.6-2.2,1.3-3.5,2.1c-2.6,1.5-5.2,2.8-5.2,2.8l1.3,2.7c0,0,2.7-1.4,5.4-2.9
			c1.3-0.8,2.6-1.5,3.6-2.1c1-0.6,1.6-1,1.6-1l-1.6-2.5C205.5,210.5,204.8,210.9,203.9,211.5z"/>
		<path fill="#FFFFFF" d="M236.2,177.8c-0.5,1-1.2,2.3-2,3.5c-1.5,2.5-3.2,5-3.2,5l2.5,1.7c0,0,1.8-2.5,3.3-5.1
			c0.8-1.3,1.5-2.6,2.1-3.7c0.5-1,0.9-1.7,0.9-1.7l-2.7-1.4C237,176.2,236.7,176.9,236.2,177.8z"/>
		<path fill="#FFFFFF" d="M18.2,246.5c-2.3,1.9-4.5,4-4.5,4l0.3,0.3c0,0,2.2-2,4.6-3.9c2.3-1.9,4.7-3.7,4.7-3.7l-0.4-0.5
			C22.9,242.8,20.5,244.6,18.2,246.5z"/>
		<path fill="#FFFFFF" d="M182.6,221.8c-1,0.4-2.4,0.9-3.9,1.3c-2.8,0.9-5.7,1.7-5.7,1.7l0.8,3c0,0,2.9-0.8,5.8-1.7
			c1.4-0.5,2.9-1,3.9-1.4c1.1-0.4,1.8-0.7,1.8-0.7l-1.1-2.8C184.3,221.2,183.6,221.4,182.6,221.8z"/>
		<path fill="#FFFFFF" d="M485.4,7.4l2.5-1.7c0,0-0.4-0.6-1.1-1.6c-0.7-0.9-1.6-2.2-2.6-3.3c-0.2-0.3-0.4-0.5-0.7-0.8h-4
			c0.7,0.8,1.5,1.7,2.3,2.7c0.9,1.1,1.8,2.3,2.4,3.2C485,6.8,485.4,7.4,485.4,7.4z"/>
		<path fill="#FFFFFF" d="M671.8,23.5l-1.3,0.3c0,0,0.2,0.7,0.5,1.8c0.3,1.1,0.7,2.5,1.2,4c0.9,2.9,2.1,5.7,2.1,5.7l1.4-0.6
			c0,0-1.2-2.7-2.2-5.5c-0.5-1.4-0.9-2.8-1.2-3.9C672,24.2,671.8,23.5,671.8,23.5z"/>
		<path fill="#FFFFFF" d="M38,232.9c-2.7,1.4-5.2,3-5.2,3l0.4,0.7c0,0,2.6-1.5,5.2-2.9c2.7-1.4,5.4-2.6,5.4-2.6l-0.4-1
			C43.4,230.2,40.7,231.5,38,232.9z"/>
		<path fill="#FFFFFF" d="M726.8,101.1l-2.5,1.4c0,0,0.3,0.7,0.9,1.6c0.5,1,1.2,2.3,1.8,3.6c0.6,1.3,1.1,2.7,1.5,3.7
			c0.4,1,0.6,1.7,0.6,1.7l2.9-1c0,0-1-2.9-2.3-5.7c-0.6-1.4-1.3-2.8-1.9-3.8C727.2,101.8,726.8,101.1,726.8,101.1z"/>
		<polygon fill="#FFFFFF" points="0,264.7 5.3,259.1 5.2,259 		"/>
		<path fill="#FFFFFF" d="M131.9,228.7c-0.7-0.1-1.5-0.1-2.2-0.2c-0.3,0-0.7-0.1-1-0.1c-0.3,0-0.6-0.1-0.9-0.1
			c-1.1-0.1-1.9-0.2-1.9-0.2l-0.3,2.4c0,0,0.7,0.1,1.9,0.3c0.3,0,0.6,0.1,0.9,0.1c0.3,0,0.7,0.1,1,0.1c0.7,0.1,1.5,0.2,2.2,0.2
			c1.5,0.2,3,0.3,4.2,0.3c1.1,0.1,1.9,0.1,1.9,0.1l0.1-2.6c0,0-0.7,0-1.9-0.1C134.9,228.9,133.4,228.8,131.9,228.7z"/>
		<path fill="#FFFFFF" d="M64.5,223.4c-1.1,0.2-2.6,0.5-4.1,0.9c-2.9,0.7-5.8,1.6-5.8,1.6l0.4,1.2c0,0,2.9-0.9,5.8-1.5
			c2.9-0.7,5.9-1.1,5.9-1.1l-0.3-1.5C66.4,223,65.7,223.2,64.5,223.4z"/>
		<path fill="#FFFFFF" d="M159.6,227.6c-1.1,0.2-2.6,0.4-4,0.6c-2.9,0.4-5.9,0.6-5.9,0.6l0.2,2.8c0,0,3-0.2,6.1-0.5
			c1.5-0.2,3-0.4,4.1-0.5c1.1-0.2,1.9-0.3,1.9-0.3l-0.5-3C161.5,227.3,160.7,227.4,159.6,227.6z"/>
		<polygon fill="#FFFFFF" points="102.1,225.8 113.8,228.2 114.3,226 102.5,223.8 		"/>
		<path fill="#FFFFFF" d="M84.5,221.6c-3-0.1-6.1,0-6.1,0l0.1,1.7c0,0,3-0.1,5.9,0.1c1.5,0.1,3,0.2,4.1,0.3c1.1,0.1,1.9,0.2,1.9,0.2
			l0.2-1.9c0,0-0.8-0.1-1.9-0.2C87.5,221.8,86,221.7,84.5,221.6z"/>
		<polygon fill="#FFFFFF" points="694.6,65.2 702.6,74.2 704.3,72.7 696.2,63.8 		"/>
		<path fill="#FFFFFF" d="M677.9,197.7c-1,0.5-2.3,1.2-3.7,1.8c-2.7,1.3-5.4,2.5-5.4,2.5l1.2,2.7c0,0,2.8-1.2,5.5-2.5
			c1.4-0.7,2.7-1.3,3.7-1.8c1-0.5,1.7-0.9,1.7-0.9l-1.4-2.7C679.6,196.8,678.9,197.2,677.9,197.7z"/>
		<path fill="#FFFFFF" d="M606,220c-2.9,0.4-5.9,0.7-5.9,0.7l0.3,3c0,0,3-0.3,6-0.7c3-0.4,6-0.9,6-0.9l-0.5-3
			C611.9,219.1,608.9,219.6,606,220z"/>
		<path fill="#FFFFFF" d="M629.3,215.4c-2.9,0.7-5.8,1.4-5.8,1.4l0.7,2.9c0,0,2.9-0.7,5.9-1.4c2.9-0.7,5.8-1.5,5.8-1.5l-0.8-2.9
			C635.1,213.9,632.2,214.7,629.3,215.4z"/>
		<path fill="#FFFFFF" d="M652.2,208.5c-2.8,1-5.7,1.9-5.7,1.9l0.9,2.9c0,0,2.9-0.9,5.7-1.9c2.8-1,5.7-2.1,5.7-2.1l-1.1-2.8
			C657.8,206.5,655,207.5,652.2,208.5z"/>
		<path fill="#FFFFFF" d="M682.5,46.7c-0.6-0.9-1-1.6-1-1.6l-1.4,0.9c0,0,0.4,0.6,1,1.6c0.6,1,1.5,2.2,2.3,3.4
			c1.7,2.5,3.6,4.9,3.6,4.9l1.5-1.2c0,0-1.9-2.3-3.6-4.7C683.9,48.8,683.1,47.6,682.5,46.7z"/>
		<path fill="#FFFFFF" d="M669.4,5.9c-0.1-2.7,0.1-5.4,0.1-5.9h-0.9c0,0.6-0.2,3.3-0.2,5.9c0,3,0.3,6,0.3,6l1.1-0.1
			C669.7,11.8,669.4,8.9,669.4,5.9z"/>
		<path fill="#FFFFFF" d="M734.5,124.8c0-0.3,0-0.5,0-0.5l-3.1,0.2c0,0,0,0.2,0,0.5c0,0.3,0,0.8,0.1,1.3c0.1,1.1,0.1,2.5,0,4
			c-0.1,2.9-0.5,5.8-0.5,5.8l3,0.4c0,0,0.5-3.1,0.6-6.1c0.1-1.5,0-3.1,0-4.2C734.5,125.6,734.5,125.2,734.5,124.8z"/>
		<path fill="#FFFFFF" d="M727.5,149.2c-0.4,1-1,2.4-1.6,3.7c-1.2,2.7-2.7,5.2-2.7,5.2l2.6,1.5c0,0,1.5-2.6,2.8-5.4
			c0.6-1.4,1.2-2.8,1.7-3.9c0.4-1.1,0.7-1.8,0.7-1.8l-2.8-1C728.2,147.5,727.9,148.2,727.5,149.2z"/>
		<path fill="#FFFFFF" d="M715.4,169.3c-0.7,0.9-1.7,2-2.7,3.1c-1,1.1-2,2.1-2.8,2.9c-0.8,0.8-1.3,1.3-1.3,1.3l2.1,2.2
			c0,0,0.5-0.5,1.4-1.3c0.8-0.8,1.9-1.9,2.9-3c1-1.1,2-2.3,2.8-3.2c0.7-0.9,1.2-1.5,1.2-1.5l-2.3-1.9
			C716.6,167.8,716.1,168.4,715.4,169.3z"/>
		<path fill="#FFFFFF" d="M698.1,185.3c-0.9,0.7-2.1,1.5-3.3,2.4c-2.4,1.7-5,3.3-5,3.3l1.6,2.5c0,0,2.6-1.6,5.1-3.3
			c1.2-0.9,2.5-1.7,3.4-2.4c0.9-0.7,1.5-1.1,1.5-1.1l-1.8-2.4C699.6,184.2,699,184.7,698.1,185.3z"/>
		<path fill="#FFFFFF" d="M712.4,81.6l-1.9,1.6c0,0,1.9,2.3,3.8,4.6c1.9,2.3,3.6,4.7,3.6,4.7L720,91c0,0-1.8-2.4-3.8-4.7
			C714.4,83.9,712.4,81.6,712.4,81.6z"/>
		<path fill="#FFFFFF" d="M586.3,221.7c-1.1,0-2.6,0.1-4.1,0.1c-3,0-5.9-0.1-5.9-0.1l-0.1,3c0,0,3,0.1,6.1,0.1c1.5,0,3,0,4.2-0.1
			c1.1,0,1.9-0.1,1.9-0.1l-0.1-3C588.2,221.6,587.5,221.6,586.3,221.7z"/>
		<path fill="#FFFFFF" d="M484.5,119.3c-0.1,0.7-0.2,1.4-0.3,1.9c-0.1,1.1-0.2,1.9-0.2,1.9l3,0.4c0,0,0.1-0.7,0.2-1.9
			c0.1-0.6,0.2-1.2,0.3-1.9c0.1-0.7,0.2-1.4,0.3-2.2c0.5-2.9,1-5.9,1-5.9l-3-0.5c0,0-0.5,3-1,5.9
			C484.7,117.9,484.6,118.6,484.5,119.3z"/>
		<path fill="#FFFFFF" d="M488.8,164.6c-0.8-2.8-1.3-5.7-1.3-5.7l-2.9,0.6c0,0,0.6,3,1.4,6c0.4,1.5,0.8,2.9,1.2,4
			c0.4,1.1,0.6,1.8,0.6,1.8l2.8-1c0,0-0.2-0.7-0.6-1.7C489.6,167.5,489.2,166,488.8,164.6z"/>
		<path fill="#FFFFFF" d="M486,145.3c-0.1-1.1-0.1-2.6-0.1-4.1c0-3,0.1-5.9,0.1-5.9l-3-0.1c0,0-0.1,3-0.1,6.1c0,1.5,0.1,3,0.1,4.2
			c0.1,1.1,0.1,1.9,0.1,1.9l3-0.2C486.1,147.2,486,146.4,486,145.3z"/>
		<path fill="#FFFFFF" d="M494.5,28.8l2.9-0.6c0,0-0.2-0.7-0.4-1.9c-0.3-1.1-0.7-2.6-1.1-4.1c-0.5-1.5-1-2.9-1.4-4
			c-0.2-0.5-0.4-1-0.5-1.3c-0.1-0.3-0.2-0.5-0.2-0.5l-2.8,1.2c0,0,0.1,0.2,0.2,0.5c0.1,0.3,0.3,0.7,0.5,1.2c0.4,1,0.9,2.4,1.3,3.8
			c0.4,1.4,0.8,2.8,1.1,3.9C494.4,28.1,494.5,28.8,494.5,28.8z"/>
		<path fill="#FFFFFF" d="M499.1,50.6c0-0.6,0-1.2,0.1-1.9c0-0.7,0-1.5,0-2.2c0-3-0.2-6.1-0.2-6.1l-3,0.2c0,0,0.2,2.9,0.2,5.9
			c0,0.7,0,1.5,0,2.2c0,0.7,0,1.3-0.1,1.9c0,1.1-0.1,1.9-0.1,1.9l3,0.1C499,52.4,499.1,51.7,499.1,50.6z"/>
		<path fill="#FFFFFF" d="M535.8,213.5c-2.8-1.1-5.5-2.3-5.5-2.3l-1.2,2.7c0,0,2.8,1.3,5.6,2.4c1.4,0.6,2.8,1.1,3.9,1.4
			c1.1,0.4,1.8,0.6,1.8,0.6l0.9-2.8c0,0-0.7-0.2-1.8-0.6C538.6,214.6,537.2,214.1,535.8,213.5z"/>
		<polygon fill="#FFFFFF" points="490.7,87.6 488.2,99.4 491.1,100 493.6,88.3 		"/>
		<path fill="#FFFFFF" d="M558.6,219.8c-2.9-0.5-5.8-1.1-5.8-1.1l-0.6,2.9c0,0,3,0.7,6,1.2c1.5,0.3,3,0.5,4.1,0.6
			c1.1,0.1,1.9,0.2,1.9,0.2l0.4-3c0,0-0.7-0.1-1.8-0.2C561.5,220.3,560.1,220,558.6,219.8z"/>
		<path fill="#FFFFFF" d="M497,70.5c0.5-3,0.9-6,0.9-6l-3-0.4c0,0-0.4,3-0.9,5.9c-0.5,2.9-1,5.9-1,5.9l3,0.5
			C496,76.5,496.5,73.5,497,70.5z"/>
		<path fill="#FFFFFF" d="M498.5,185.9c-1.7-2.4-3.1-5-3.1-5l-2.6,1.5c0,0,1.5,2.7,3.3,5.2c0.9,1.3,1.8,2.5,2.5,3.4
			c0.7,0.9,1.2,1.5,1.2,1.5l2.3-1.9c0,0-0.5-0.6-1.2-1.4C500.2,188.3,499.3,187.1,498.5,185.9z"/>
		<path fill="#FFFFFF" d="M515,202.4c-2.4-1.7-4.6-3.6-4.6-3.6l-1.9,2.3c0,0,2.3,2,4.8,3.8c1.2,0.9,2.5,1.7,3.5,2.4
			c1,0.6,1.6,1,1.6,1l1.6-2.5c0,0-0.6-0.4-1.6-1C517.4,204.1,516.2,203.3,515,202.4z"/>
	</g>
</g>
</svg>
