<?xml version="1.0" encoding="UTF-8" standalone="no"?>
<svg width="450px" height="243px" viewBox="0 0 450 243" version="1.1" xmlns="http://www.w3.org/2000/svg" xmlns:xlink="http://www.w3.org/1999/xlink" xmlns:sketch="http://www.bohemiancoding.com/sketch/ns">
    <!-- Generator: Sketch 3.0.3 (7892) - http://www.bohemiancoding.com/sketch -->
    <title>Group 28</title>
    <desc>Created with Sketch.</desc>
    <defs>
        <path id="path-1" d="M-0.193,60.474 L249.807,60.474 L249.807,-0.125 L-0.193,-0.125"></path>
        <path id="path-3" d="M-0.193,60.474 L249.807,60.474 L249.807,-0.125 L-0.193,-0.125"></path>
    </defs>
    <g id="Page-1" stroke="none" stroke-width="1" fill="none" fill-rule="evenodd" sketch:type="MSPage">
        <g id="Desktop-HD" sketch:type="MSArtboardGroup" transform="translate(-415.000000, 0.000000)">
            <g id="Aorta-Wireframes-E" sketch:type="MSLayerGroup">
                <g id="Group-28" transform="translate(515.000000, 83.000000)">
                    <g id="Group-20">
                        <mask id="mask-2" sketch:name="Clip 19" fill="white">
                            <use xlink:href="#path-1"></use>
                        </mask>
                        <g id="Clip-19"></g>
                        <path d="M163.1151,4.2834 C162.8861,3.6954 162.8131,3.2854 162.5861,2.9954 C162.4191,2.7844 161.9951,2.5744 161.7841,2.6474 C161.4951,2.7484 161.2191,3.0874 161.1021,3.3874 C161.0571,3.5044 161.4221,3.8844 161.6661,3.9864 C162.0371,4.1424 162.4671,4.1604 163.1151,4.2834 M76.9381,48.9294 C77.9331,48.9874 78.2231,48.6324 78.2641,47.4534 C78.2911,46.6814 77.7211,46.9254 77.2921,46.8614 C76.9331,46.8074 76.5911,46.6334 76.2431,46.5064 C75.8391,46.3584 75.4511,46.1414 75.0351,46.0654 C74.3651,45.9434 74.0441,46.3834 74.3131,46.9944 C74.8431,48.1904 75.8371,48.7364 76.9381,48.9294 M160.7691,7.1814 C160.7431,7.1864 160.7171,7.1914 160.6911,7.1964 C160.9921,8.5744 161.2581,9.9624 161.6251,11.3214 C161.6991,11.5934 162.1621,11.7594 162.4451,11.9744 C162.6221,11.7344 162.9401,11.5024 162.9541,11.2534 C163.0361,9.7924 163.1361,8.3214 163.0401,6.8664 C163.0011,6.2884 162.6921,5.4704 161.8121,5.5444 C160.9751,5.6164 160.8201,6.3064 160.7701,7.0074 C160.7661,7.0654 160.7691,7.1234 160.7691,7.1814 M129.3701,13.9924 C128.9371,14.2664 128.5251,14.5284 128.3201,14.6584 C127.8571,14.2784 127.5991,13.8934 127.3201,13.8764 C126.8771,13.8504 126.4201,14.0704 125.7771,14.2354 C126.3121,14.6304 126.5851,14.8324 126.9991,15.1374 C125.3341,15.3704 124.3061,14.6074 123.2711,13.7194 C122.7541,13.2754 122.0721,12.8914 121.4121,12.7764 C120.5371,12.6244 119.9061,13.3474 120.0081,14.1204 C120.1741,15.3874 121.7471,16.8574 123.0541,16.7754 C125.2421,16.6384 127.4581,16.5434 129.5941,16.0994 C131.3741,15.7294 133.2791,15.4804 134.7761,14.2524 C135.0511,14.0274 135.2031,13.6534 135.4121,13.3474 C135.0711,13.2534 134.7301,13.0784 134.3901,13.0824 C133.4221,13.0934 132.4551,13.1714 131.4891,13.2414 C131.3821,13.2494 131.2921,13.3924 131.1811,13.4494 C130.6011,13.7474 130.0461,14.1674 129.3701,13.9924 M83.4601,46.8464 C83.4731,46.9224 83.4861,46.9994 83.4991,47.0764 C84.9231,46.7554 86.3341,46.3244 87.7761,46.1424 C89.3381,45.9444 90.6351,45.2914 91.8321,44.3524 C92.5491,43.7904 93.1821,43.0844 93.9691,42.6584 C94.8121,42.2014 95.2121,41.4974 95.5891,40.7184 C95.9301,40.0184 96.2081,39.2824 96.6031,38.6164 C97.9371,36.3694 97.9331,34.0834 97.0551,31.6754 C96.7661,30.8804 96.1611,30.5134 95.6361,30.0024 C94.4441,28.8394 93.2731,27.6554 92.0531,26.5224 C91.7801,26.2674 91.3461,26.0504 90.9851,26.0504 C89.9561,26.0504 88.9041,26.0584 87.9021,26.2654 C85.6201,26.7364 83.2221,27.0144 81.1331,27.9544 C78.8981,28.9614 76.6351,30.1264 74.9801,32.1554 C74.2741,33.0224 73.8031,33.8704 73.8421,34.9384 C73.8701,35.7264 74.0751,36.5124 74.2341,37.2924 C74.4401,38.3034 74.6141,39.3274 74.9171,40.3104 C75.4751,42.1234 76.2841,43.7154 78.0081,44.8314 C79.7071,45.9304 81.3121,47.0454 83.4601,46.8464 M153.3141,16.1794 C151.7481,17.0524 150.2691,18.0044 148.6821,18.7154 C147.7481,19.1334 146.6511,19.2424 145.6141,19.3594 C143.4741,19.6014 141.3371,19.1294 139.1551,19.5944 C135.3281,20.4104 132.3171,22.3494 129.9511,25.3794 C129.6701,25.7404 129.5861,26.2754 129.4721,26.7444 C128.9501,28.8864 128.6071,31.0454 128.7241,33.2684 C128.7611,33.9684 128.5511,34.6794 128.4681,35.3864 C128.1721,37.8994 127.9271,40.4194 127.5731,42.9244 C127.3571,44.4604 127.0321,45.9874 126.6571,47.4934 C126.1721,49.4384 125.6341,51.3734 125.0151,53.2794 C124.8291,53.8484 124.3831,54.4104 123.9091,54.7924 C122.8141,55.6764 121.6571,56.4934 120.4661,57.2414 C120.0611,57.4954 119.4771,57.4984 118.9681,57.5434 C118.4241,57.5914 117.8691,57.5104 117.3241,57.5594 C115.2091,57.7524 113.8131,56.7534 112.7041,55.0334 C112.1121,54.1144 112.0061,53.1814 111.9971,52.1644 C111.9781,50.2884 112.2601,48.3314 111.8141,46.5594 C111.2331,44.2454 111.3761,41.9904 111.4321,39.6944 C111.4431,39.2634 111.3341,38.8284 111.3521,38.3974 C111.3701,37.9364 111.3941,37.4494 111.5501,37.0234 C112.0061,35.7864 111.5591,34.6124 111.5351,33.4114 C111.4431,33.3974 111.3501,33.3834 111.2581,33.3694 C111.1731,33.6384 111.0741,33.9044 111.0081,34.1784 C110.4741,36.3804 109.9621,38.5884 109.4121,40.7864 C108.9111,42.7914 108.1031,44.6824 106.9481,46.3914 C105.6951,48.2454 104.5161,50.2034 102.9721,51.7914 C101.5251,53.2804 99.6671,54.3834 97.9431,55.5884 C94.7781,57.7994 91.1791,58.9274 87.4351,59.6634 C87.1221,59.7244 86.8081,59.7864 86.5021,59.8744 C83.7141,60.6814 80.8901,60.6544 78.1311,59.9084 C76.6021,59.4944 75.1511,58.7164 73.7391,57.9624 C72.1591,57.1194 70.6441,56.1474 69.1351,55.1794 C66.9371,53.7694 64.8651,52.2404 63.8421,49.6694 C63.4941,48.7954 62.8891,48.0264 62.4441,47.1884 C61.3361,45.0964 61.7451,42.7064 61.1571,40.5114 C61.0361,40.0564 60.8271,39.6154 60.6041,39.1974 C59.6721,37.4554 59.4351,35.6724 60.1851,33.7994 C60.4091,33.2394 60.6641,32.6694 60.7491,32.0814 C61.1601,29.2394 62.5441,26.8364 63.9211,24.3814 C64.8921,22.6494 66.3201,21.3714 67.4871,19.8534 C68.6101,18.3924 70.1551,17.7614 71.5981,16.8804 C72.8961,16.0894 74.1541,15.2024 75.5311,14.5814 C76.7231,14.0424 78.0481,13.7824 79.3311,13.4664 C80.1151,13.2724 80.9401,13.2454 81.7261,13.0574 C82.0641,12.9764 82.4281,12.7404 82.6471,12.4684 C84.1481,10.5994 86.2391,10.4094 88.3831,10.4574 C89.0031,10.4714 89.6551,10.7074 90.2181,10.9904 C90.5821,11.1724 90.8101,11.6244 91.2321,12.1064 C91.2841,12.0634 91.5221,11.8634 91.8311,11.6054 C92.1271,11.7414 92.5131,11.9194 92.8961,12.0954 C92.2361,13.7364 92.5641,14.9214 93.9241,15.8754 C94.4921,16.2734 95.0661,16.4494 95.5941,15.7644 C96.0761,15.1394 96.5841,15.6514 96.9711,15.8654 C98.2811,16.5914 99.5921,17.3354 100.8071,18.2054 C101.9731,19.0394 103.0051,20.0574 104.1251,20.9574 C104.6601,21.3884 105.2711,21.7224 105.8281,22.1274 C106.1511,22.3624 106.5211,22.5994 106.7211,22.9264 C107.8261,24.7314 108.9751,26.5194 109.9271,28.4044 C110.5131,29.5654 110.7691,30.8904 111.1811,32.1404 C111.2141,32.2414 111.3081,32.3224 111.4341,32.4964 C112.1391,31.1984 111.9711,29.8504 111.9101,28.5714 C111.8231,26.7594 111.5401,24.9564 111.3161,23.1514 C111.2741,22.8164 111.1831,22.4504 110.9991,22.1754 C109.9251,20.5664 110.3241,18.8824 110.6951,17.1974 C110.8121,16.6644 110.9711,16.1414 111.1101,15.6134 C111.1831,15.3334 111.1801,14.9954 111.3421,14.7844 C112.3011,13.5414 113.0981,12.0374 114.3371,11.1824 C115.7211,10.2264 117.4911,9.6494 119.2601,10.6934 C119.5571,10.8684 119.9731,10.8284 120.3151,10.9424 C121.2191,11.2434 122.1081,11.5984 123.0191,11.8764 C123.2251,11.9404 123.6451,11.8534 123.7191,11.7094 C124.0511,11.0584 124.5141,11.1914 124.8071,11.5884 C125.9511,13.1404 127.4561,12.6064 128.8611,12.3014 C130.8801,11.8614 132.8751,11.3054 134.8651,10.7464 C136.2161,10.3664 137.5151,9.7074 138.8861,9.5084 C140.8601,9.2224 142.8681,8.7894 144.8831,9.3964 C145.5191,9.5874 146.1941,9.6494 146.8341,9.9274 C146.5541,9.9474 146.2721,9.9974 145.9931,9.9814 C145.4891,9.9544 145.0181,9.8064 144.7141,10.4814 C144.6141,10.7044 143.9731,10.6694 143.5881,10.7824 C142.7491,11.0284 141.9161,11.2934 141.0801,11.5514 C141.0831,11.6924 141.0861,11.8344 141.0891,11.9764 C141.8441,12.1424 142.5961,12.3414 143.3591,12.4674 C145.3421,12.7934 147.3331,12.7474 149.3041,12.3994 C149.8161,12.3094 150.2571,11.8674 150.7691,11.7144 C151.0811,11.6204 151.6781,11.6494 151.7811,11.8304 C152.2421,12.6424 153.0521,12.2284 153.6621,12.4554 C153.7171,12.4754 154.0291,12.0574 154.0671,11.8194 C154.3561,9.9954 154.6031,8.1654 154.8751,6.3394 C154.9091,6.1144 154.9941,5.8914 155.0861,5.6804 C155.5251,4.6764 156.0011,3.6874 156.4141,2.6724 C156.8791,1.5274 158.0391,1.2674 158.9171,0.6714 C160.9091,-0.6816 163.7371,-0.2496 165.4001,1.5034 C165.9281,2.0604 166.6381,2.4414 167.2221,2.9514 C167.9331,3.5734 168.1901,4.3594 168.2291,5.3364 C168.2851,6.7084 168.5931,8.0684 168.7651,9.4374 C168.8341,9.9954 168.9231,10.5784 168.8371,11.1224 C168.7071,11.9344 169.0581,12.5104 169.6191,12.9314 C170.7961,13.8164 172.0271,14.4914 173.6281,14.4704 C174.6221,14.4564 175.6121,14.9994 176.6221,15.2014 C178.7091,15.6194 180.8461,15.8344 182.8891,16.3984 C184.8261,16.9344 186.5631,17.9654 187.4191,19.9534 C187.5971,20.3684 187.6091,20.9254 187.5101,21.3764 C187.1711,22.9294 186.4821,24.2634 184.9021,24.9284 C184.7471,24.9934 184.5821,25.1094 184.4951,25.2474 C183.4801,26.8674 181.7581,27.0764 180.1301,27.3434 C177.5441,27.7694 174.9411,28.2144 172.3311,28.3404 C170.3321,28.4374 168.5861,29.0264 166.8131,29.8324 C165.6981,30.3404 165.2951,30.9714 165.5001,32.1704 C165.6041,32.7694 165.2441,33.4544 165.3701,34.0414 C165.6651,35.4164 166.0891,36.7684 166.5451,38.1014 C166.6661,38.4544 167.0771,38.7184 167.3801,38.9954 C167.5241,39.1264 167.7551,39.1614 167.8991,39.2914 C169.4901,40.7314 171.4691,41.1964 173.4981,41.2854 C174.5621,41.3324 175.6501,40.9034 176.7241,40.6754 C177.5161,40.5064 178.3131,40.3474 179.0911,40.1274 C181.2431,39.5174 183.2141,40.0694 185.1151,41.0354 C186.7561,41.8694 187.2531,43.5934 186.6621,45.6554 C185.9451,48.1564 184.5921,50.3434 182.3661,51.9164 C180.2921,53.3824 178.0761,54.5244 175.6801,55.3204 C174.2581,55.7934 172.8171,56.2224 171.3621,56.5734 C170.7611,56.7174 170.0951,56.6474 169.4641,56.6014 C167.9151,56.4874 166.3691,56.3324 164.8231,56.1874 C164.6811,56.1744 164.5391,56.1294 164.4061,56.0764 C163.3691,55.6604 162.3021,55.3014 161.3101,54.7964 C160.6411,54.4564 160.0081,53.9764 159.4841,53.4374 C158.4261,52.3514 157.3591,51.2504 156.4691,50.0294 C155.3991,48.5634 154.2561,47.1904 153.8091,45.2574 C153.4001,43.4874 153.0401,41.7244 152.9281,39.9364 C152.8551,38.7764 152.7321,37.7214 152.2941,36.6114 C151.9241,35.6764 152.1521,34.5204 152.0181,33.4754 C151.6381,30.5344 152.3941,27.7374 153.0131,24.9184 C153.2351,23.9034 153.3071,22.9124 153.1431,21.8394 C152.9461,20.5444 153.1201,19.1904 153.1621,17.8624 C153.1821,17.2604 153.2691,16.6614 153.3141,16.1794" id="Fill-18" fill="#133C37" sketch:type="MSShapeGroup" mask="url(#mask-2)"></path>
                    </g>
                    <g id="Group-23">
                        <mask id="mask-4" sketch:name="Clip 22" fill="white">
                            <use xlink:href="#path-3"></use>
                        </mask>
                        <g id="Clip-22"></g>
                        <path d="M14.7471,13.1003 C14.2501,12.9013 13.8481,12.6453 13.4211,12.5963 C13.0121,12.5483 12.6641,12.8003 12.9401,13.3023 C13.2251,13.8193 14.2571,13.7773 14.7471,13.1003 M43.9971,26.2733 C43.4181,26.2493 42.7431,26.8983 42.7001,27.5233 C42.6581,28.1173 43.2391,28.6913 43.9241,28.7343 C44.6171,28.7773 45.1981,28.3043 45.2511,27.6543 C45.3031,27.0283 44.6411,26.2993 43.9971,26.2733 M24.3381,10.3733 C24.2941,11.4063 25.1311,11.3013 25.4831,11.3673 C25.9211,11.8933 26.1541,12.4483 26.4791,12.5073 C27.2211,12.6443 28.0491,12.6823 28.7571,12.4723 C29.1321,12.3613 29.5051,11.6743 29.5661,11.2053 C29.6451,10.5953 29.1351,10.1733 28.5051,10.2043 C27.6191,10.2473 26.7371,10.4033 25.7431,10.5253 C25.2751,9.9663 25.2541,9.9613 24.3381,10.3733 M38.2821,10.6373 C38.0951,10.7333 37.5971,10.8373 37.3641,11.1433 C37.0231,11.5923 37.3301,12.0773 37.6871,12.4393 C38.7891,13.5563 39.8721,14.6963 41.0291,15.7533 C41.6531,16.3233 42.3931,16.7763 43.1211,17.2173 C43.6741,17.5533 44.4271,17.6483 44.7631,17.0793 C45.0201,16.6463 44.9781,15.8973 44.7991,15.3823 C44.5711,14.7223 44.0971,14.1383 43.6861,13.5513 C42.4381,11.7703 40.7511,10.7543 38.2821,10.6373 M24.9681,22.6063 C24.9611,22.6963 24.9551,22.7863 24.9481,22.8763 C23.5651,22.6173 22.4891,23.1213 21.6561,24.1713 C20.8721,25.1593 20.1061,26.1623 19.3531,27.1743 C18.9961,27.6533 18.5641,28.1263 18.3751,28.6733 C17.7961,30.3483 17.4081,32.0933 16.7721,33.7443 C16.2391,35.1263 16.5671,36.4793 16.5731,37.8463 C16.5741,38.0763 16.7201,38.3283 16.8551,38.5323 C17.9371,40.1603 19.5071,40.7483 21.4001,40.6323 C22.5211,40.5633 23.6511,40.5653 24.7611,40.4213 C26.0731,40.2503 27.4911,40.3693 28.5381,39.2623 C28.6951,39.0963 29.0161,39.0273 29.2671,39.0143 C30.3861,38.9553 31.2301,38.5243 31.8461,37.5293 C32.2181,36.9283 32.8811,36.5143 33.2961,35.9333 C33.9071,35.0793 34.5651,34.2193 34.5681,33.0823 C34.5721,31.7723 34.0861,30.6363 33.3911,29.5523 C32.8531,28.7133 32.2831,27.9083 32.2241,26.8143 C32.1411,25.2743 31.0671,24.2143 29.7941,23.7153 C28.2731,23.1203 26.5831,22.9573 24.9681,22.6063 M39.0361,9.0643 C39.4921,9.4783 39.9451,9.8933 40.4041,10.3043 C40.5121,10.3993 40.6241,10.5133 40.7541,10.5573 C41.5181,10.8133 42.2881,11.0603 43.0621,11.2863 C43.1691,11.3173 43.3171,11.2113 43.4681,11.1623 C43.2501,10.6473 43.0541,10.1843 42.8191,9.6273 C43.8891,9.7923 44.7271,10.1683 45.5131,10.7983 C46.5011,11.5913 47.5691,12.2893 48.6371,12.9753 C50.6511,14.2683 52.0061,16.0403 52.8211,18.2893 C53.1921,19.3123 53.6901,20.3153 54.2861,21.2253 C54.9391,22.2233 55.0541,23.3463 54.9521,24.3883 C54.8351,25.5863 54.6851,26.8203 53.9701,27.9423 C53.1741,29.1893 52.6431,30.6073 52.0121,31.9573 C51.9291,32.1343 51.8971,32.3513 51.8981,32.5493 C51.9111,33.8223 51.8101,35.1143 51.9941,36.3633 C52.2831,38.3173 53.2421,39.9903 54.6041,41.4323 C56.3661,43.2973 58.1691,45.1293 59.8211,47.0883 C60.5081,47.9033 61.0461,48.8753 61.1271,50.0903 C61.2301,51.6563 61.1091,53.0863 60.1051,54.3403 C59.8951,54.6013 59.6411,54.8433 59.3661,55.0353 C58.7521,55.4623 58.1121,55.8533 57.4811,56.2563 C56.6771,56.7683 55.8361,57.0343 54.8541,56.8403 C53.5301,56.5783 52.1241,56.5813 50.8751,56.1333 C48.7941,55.3863 46.8451,54.3863 45.2601,52.6933 C44.3421,51.7133 43.0391,51.0673 41.8491,50.3773 C41.2101,50.0073 40.4441,49.8553 39.7301,49.6183 C38.2961,49.1413 37.1191,49.6513 35.9401,50.4733 C33.8421,51.9353 31.6791,53.3043 29.5321,54.6943 C29.2781,54.8583 28.9481,54.9013 28.6541,55.0053 C25.7311,56.0423 22.8071,57.0803 19.8821,58.1143 C19.8061,58.1413 19.7111,58.1213 19.6261,58.1153 C18.0541,57.9923 16.4781,57.9093 14.9131,57.7303 C13.9501,57.6203 12.8921,57.5713 12.0691,57.1343 C9.3261,55.6783 6.8141,53.9013 5.5461,50.8853 C4.9921,49.5643 4.4711,48.2233 4.0151,46.8653 C3.5351,45.4403 3.2151,43.9603 2.7081,42.5463 C2.0721,40.7713 1.9001,38.8873 1.1061,37.1253 C0.4231,35.6063 0.0481,33.8723 0.3521,32.1093 C0.4231,31.6963 0.3381,31.2373 0.2421,30.8183 C-0.0289,29.6523 -0.1029,28.5113 0.0901,27.3033 C0.2081,26.5583 -0.2039,25.7443 -0.1929,24.9633 C-0.1759,23.7743 0.0201,22.5883 0.1041,21.3983 C0.2771,18.9363 1.4601,16.7803 2.2421,14.5133 C2.7061,13.1673 3.6141,11.9703 4.3641,10.7303 C4.5511,10.4223 4.9021,10.2163 5.1661,9.9523 C5.6061,9.5143 6.0061,9.0303 6.4761,8.6303 C7.7961,7.5103 9.0551,6.2833 10.5071,5.3663 C11.6501,4.6453 13.0371,4.3043 14.3301,3.8333 C14.6691,3.7093 15.0591,3.7313 15.4261,3.6803 C16.7861,3.4903 18.1481,3.3173 19.5031,3.1033 C21.7081,2.7533 23.8641,3.0163 26.0341,3.4443 C27.3861,3.7103 28.7941,3.6803 30.1521,3.9243 C31.5621,4.1773 32.9921,4.4723 34.3231,4.9843 C35.9451,5.6063 37.4761,6.4643 39.0381,7.2383 C39.7681,7.6003 40.4821,7.9963 41.1961,8.3913 C41.3041,8.4513 41.3691,8.5883 41.5101,8.7563 C40.6171,8.8743 39.8141,8.9803 39.0131,9.0863 C38.9181,8.8503 38.8881,8.5243 38.7141,8.3983 C38.3721,8.1523 37.9611,7.9783 37.5541,7.8553 C37.3691,7.7993 37.1261,7.9353 36.9091,7.9853 C37.0291,8.1453 37.1161,8.3873 37.2751,8.4523 C37.8491,8.6883 38.4471,8.8653 39.0361,9.0643" id="Fill-21" fill="#133C37" sketch:type="MSShapeGroup" mask="url(#mask-4)"></path>
                    </g>
                    <path d="M231.1614,41.6335 C230.6974,41.4475 230.3214,41.2095 229.9244,41.1625 C229.5414,41.1185 229.2174,41.3535 229.4754,41.8225 C229.7404,42.3045 230.7034,42.2655 231.1614,41.6335 M206.8274,19.4785 C206.2864,19.4565 205.6574,20.0625 205.6164,20.6455 C205.5774,21.1995 206.1194,21.7355 206.7594,21.7755 C207.4054,21.8155 207.9474,21.3745 207.9974,20.7675 C208.0454,20.1825 207.4284,19.5035 206.8274,19.4785 M227.4204,44.0775 C227.3784,45.0415 228.1604,44.9435 228.4884,45.0055 C228.8984,45.4965 229.1164,46.0135 229.4194,46.0695 C230.1104,46.1965 230.8834,46.2325 231.5444,46.0365 C231.8944,45.9335 232.2424,45.2915 232.2994,44.8545 C232.3734,44.2845 231.8974,43.8915 231.3094,43.9195 C230.4824,43.9595 229.6594,44.1055 228.7314,44.2195 C228.2944,43.6975 228.2754,43.6935 227.4204,44.0775 M200.8954,37.3795 C201.0724,37.4655 201.4294,37.7775 201.7884,37.7795 C202.3144,37.7825 202.5034,37.2815 202.5734,36.8125 C202.7894,35.3635 203.0314,33.9165 203.1704,32.4605 C203.2454,31.6755 203.1684,30.8695 203.0894,30.0795 C203.0284,29.4775 202.6774,28.8645 202.0654,28.9315 C201.5974,28.9835 201.0624,29.4345 200.7784,29.8565 C200.4144,30.3975 200.2444,31.0785 200.0384,31.7145 C199.4094,33.6445 199.5994,35.4725 200.8954,37.3795 M216.0334,24.6125 C216.0284,24.6965 216.0214,24.7805 216.0154,24.8645 C214.7244,24.6225 213.7214,25.0935 212.9434,26.0725 C212.2124,26.9955 211.4974,27.9315 210.7944,28.8755 C210.4604,29.3225 210.0574,29.7635 209.8814,30.2755 C209.3414,31.8385 208.9794,33.4665 208.3854,35.0065 C207.8884,36.2965 208.1944,37.5595 208.2004,38.8345 C208.2004,39.0505 208.3364,39.2855 208.4634,39.4755 C209.4734,40.9945 210.9374,41.5435 212.7054,41.4355 C213.7504,41.3705 214.8044,41.3735 215.8414,41.2385 C217.0654,41.0795 218.3894,41.1895 219.3664,40.1565 C219.5134,40.0015 219.8124,39.9375 220.0454,39.9255 C221.0914,39.8695 221.8784,39.4675 222.4534,38.5395 C222.8004,37.9785 223.4194,37.5925 223.8074,37.0495 C224.3764,36.2535 224.9904,35.4505 224.9934,34.3895 C224.9974,33.1665 224.5444,32.1065 223.8954,31.0945 C223.3934,30.3115 222.8614,29.5615 222.8054,28.5405 C222.7284,27.1025 221.7264,26.1135 220.5384,25.6475 C219.1194,25.0925 217.5424,24.9395 216.0334,24.6125 M229.1634,11.9755 C229.5884,12.3615 230.0124,12.7485 230.4404,13.1315 C230.5404,13.2215 230.6444,13.3275 230.7654,13.3675 C231.4804,13.6075 232.1974,13.8375 232.9204,14.0485 C233.0204,14.0775 233.1584,13.9785 233.2994,13.9325 C233.0964,13.4515 232.9134,13.0195 232.6934,12.5005 C233.6924,12.6545 234.4744,13.0055 235.2074,13.5935 C236.1294,14.3325 237.1264,14.9845 238.1234,15.6245 C240.0024,16.8315 241.2674,18.4845 242.0284,20.5835 C242.3744,21.5385 242.8384,22.4745 243.3944,23.3235 C244.0044,24.2545 244.1124,25.3035 244.0174,26.2765 C243.9074,27.3935 243.7674,28.5455 243.0994,29.5925 C242.3574,30.7565 241.8624,32.0795 241.2724,33.3395 C241.1954,33.5045 241.1644,33.7075 241.1664,33.8915 C241.1794,35.0795 241.0844,36.2855 241.2574,37.4515 C241.5254,39.2755 242.4204,40.8365 243.6914,42.1825 C245.3364,43.9225 247.0194,45.6315 248.5604,47.4605 C249.2014,48.2215 249.7044,49.1275 249.7784,50.2625 C249.8754,51.7235 249.7634,53.0575 248.8254,54.2275 C248.6294,54.4725 248.3934,54.6985 248.1364,54.8765 C247.5624,55.2755 246.9664,55.6405 246.3764,56.0155 C245.6254,56.4935 244.8414,56.7425 243.9244,56.5605 C242.6904,56.3165 241.3774,56.3195 240.2114,55.9015 C238.2694,55.2045 236.4504,54.2715 234.9714,52.6915 C234.1144,51.7765 232.8994,51.1735 231.7884,50.5295 C231.1914,50.1845 230.4764,50.0425 229.8104,49.8215 C228.4724,49.3765 227.3734,49.8525 226.2734,50.6195 C224.3154,51.9835 222.2974,53.2615 220.2944,54.5585 C220.0574,54.7115 219.7484,54.7515 219.4744,54.8485 C216.7464,55.8165 214.0184,56.7855 211.2884,57.7505 C211.2174,57.7755 211.1284,57.7575 211.0484,57.7505 C209.5814,57.6365 208.1114,57.5585 206.6504,57.3915 C205.7514,57.2895 204.7644,57.2435 203.9964,56.8355 C201.4364,55.4765 199.0914,53.8185 197.9094,51.0045 C197.3914,49.7705 196.9064,48.5195 196.4794,47.2525 C196.0324,45.9225 195.7334,44.5415 195.2604,43.2215 C194.6664,41.5655 194.5074,39.8065 193.7654,38.1625 C193.1274,36.7445 192.7784,35.1265 193.0614,33.4815 C193.1284,33.0965 193.0494,32.6675 192.9584,32.2765 C192.7064,31.1885 192.6374,30.1235 192.8174,28.9965 C192.9274,28.3015 192.5434,27.5415 192.5534,26.8125 C192.5694,25.7025 192.7524,24.5965 192.8304,23.4855 C192.9924,21.1885 194.0954,19.1755 194.8254,17.0605 C195.2594,15.8045 196.1064,14.6865 196.8064,13.5295 C196.9804,13.2425 197.3084,13.0505 197.5544,12.8035 C197.9654,12.3945 198.3374,11.9435 198.7774,11.5705 C200.0084,10.5245 201.1844,9.3795 202.5394,8.5235 C203.6054,7.8505 204.9004,7.5325 206.1064,7.0925 C206.4224,6.9775 206.7884,6.9975 207.1294,6.9505 C208.3984,6.7735 209.6694,6.6115 210.9344,6.4115 C212.9924,6.0855 215.0044,6.3315 217.0294,6.7305 C218.2914,6.9785 219.6064,6.9505 220.8724,7.1775 C222.1894,7.4145 223.5234,7.6895 224.7644,8.1665 C226.2784,8.7475 227.7074,9.5485 229.1644,10.2705 C229.8464,10.6085 230.5134,10.9785 231.1794,11.3465 C231.2794,11.4025 231.3414,11.5305 231.4724,11.6875 C230.6384,11.7975 229.8894,11.8965 229.1414,11.9955 C229.0534,11.7745 229.0254,11.4705 228.8624,11.3535 C228.5434,11.1235 228.1594,10.9615 227.7804,10.8465 C227.6074,10.7945 227.3804,10.9215 227.1794,10.9675 C227.2904,11.1175 227.3714,11.3425 227.5194,11.4035 C228.0554,11.6245 228.6134,11.7895 229.1634,11.9755" id="Fill-26" fill="#133C37" sketch:type="MSShapeGroup"></path>
                </g>
            </g>
        </g>
    </g>
</svg>