<?xml version="1.0" encoding="UTF-8" standalone="no"?>
<svg width="333px" height="312px" viewBox="0 0 333 312" version="1.1" xmlns="http://www.w3.org/2000/svg" xmlns:xlink="http://www.w3.org/1999/xlink" xmlns:sketch="http://www.bohemiancoding.com/sketch/ns">
    <!-- Generator: Sketch 3.0.3 (7892) - http://www.bohemiancoding.com/sketch -->
    <title>Fill 1</title>
    <desc>Created with Sketch.</desc>
    <defs></defs>
    <g id="Page-1" stroke="none" stroke-width="1" fill="none" fill-rule="evenodd" sketch:type="MSPage">
        <g id="Aorta-Design-D" sketch:type="MSLayerGroup" transform="translate(-528.000000, -1780.000000)" fill="#FF00BD">
            <path d="M761.0036,1923.4372 C760.7686,1923.4022 760.5326,1923.3662 760.2976,1923.3302 C760.0836,1924.0182 759.8306,1924.6952 759.6616,1925.3932 C758.3006,1931.0052 756.9936,1936.6312 755.5936,1942.2332 C754.3156,1947.3452 752.2566,1952.1642 749.3126,1956.5192 C746.1186,1961.2442 743.1166,1966.2352 739.1806,1970.2832 C735.4906,1974.0772 730.7576,1976.8882 726.3626,1979.9592 C718.2956,1985.5932 709.1236,1988.4692 699.5796,1990.3442 C698.7826,1990.5012 697.9826,1990.6582 697.2036,1990.8832 C690.0986,1992.9392 682.8986,1992.8722 675.8696,1990.9692 C671.9706,1989.9132 668.2726,1987.9312 664.6736,1986.0102 C660.6466,1983.8622 656.7866,1981.3852 652.9406,1978.9182 C647.3386,1975.3242 642.0586,1971.4282 639.4496,1964.8732 C638.5636,1962.6462 637.0206,1960.6892 635.8886,1958.5502 C633.0646,1953.2182 634.1066,1947.1272 632.6096,1941.5342 C632.2986,1940.3732 631.7676,1939.2512 631.1976,1938.1852 C628.8236,1933.7452 628.2186,1929.2012 630.1306,1924.4272 C630.7006,1923.0012 631.3516,1921.5482 631.5686,1920.0492 C632.6146,1912.8062 636.1426,1906.6822 639.6516,1900.4252 C642.1266,1896.0112 645.7656,1892.7512 648.7396,1888.8842 C651.6026,1885.1612 655.5396,1883.5512 659.2186,1881.3072 C662.5256,1879.2902 665.7336,1877.0302 669.2416,1875.4462 C672.2806,1874.0742 675.6576,1873.4122 678.9256,1872.6042 C680.9246,1872.1102 683.0276,1872.0422 685.0316,1871.5632 C685.8936,1871.3572 686.8206,1870.7562 687.3796,1870.0612 C691.2046,1865.2992 696.5326,1864.8132 701.9976,1864.9372 C703.5766,1864.9732 705.2386,1865.5752 706.6736,1866.2942 C707.6006,1866.7592 708.1836,1867.9112 709.2576,1869.1402 C709.3906,1869.0282 709.9986,1868.5202 710.7856,1867.8612 C711.5396,1868.2092 712.5236,1868.6622 713.4986,1869.1112 C711.8186,1873.2932 712.6546,1876.3142 716.1196,1878.7452 C717.5656,1879.7602 719.0296,1880.2072 720.3756,1878.4612 C721.6046,1876.8682 722.8996,1878.1732 723.8846,1878.7192 C727.2226,1880.5702 730.5646,1882.4672 733.6626,1884.6842 C736.6326,1886.8102 739.2636,1889.4032 742.1176,1891.7002 C743.4806,1892.7972 745.0386,1893.6472 746.4576,1894.6802 C747.2816,1895.2792 748.2236,1895.8832 748.7336,1896.7162 C751.5506,1901.3162 754.4806,1905.8722 756.9056,1910.6772 C758.3976,1913.6352 759.0516,1917.0142 760.1016,1920.1972 C760.1866,1920.4552 760.4246,1920.6632 760.7456,1921.1072" id="Fill-1" sketch:type="MSShapeGroup"></path>
        </g>
    </g>
</svg>