<?xml version="1.0" encoding="utf-8"?>
<!-- Generator: Adobe Illustrator 18.1.1, SVG Export Plug-In . SVG Version: 6.00 Build 0)  -->
<!DOCTYPE svg PUBLIC "-//W3C//DTD SVG 1.1//EN" "http://www.w3.org/Graphics/SVG/1.1/DTD/svg11.dtd">
<svg version="1.1" id="Layer_1" xmlns="http://www.w3.org/2000/svg" xmlns:xlink="http://www.w3.org/1999/xlink" x="0px" y="0px"
	 width="1352px" height="18.6px" viewBox="0 0 1352 18.6" enable-background="new 0 0 1352 18.6" xml:space="preserve">
<path fill="#E8E8E6" d="M1352,18.5v-3.7l-1.6,0c0,0,0.1,0,0.1,0c-65.4-17.2-138.5-5.3-208.7-2.4c-8.6-3-18.6-3.5-27.8-3.6
	c-22.7-0.1-45.4,0.8-68.1,2.8C983.8,8.8,921.7,2.7,859.4,1.5C783.1,0.1,707,6.1,630.8,7.9c-20.2,0.5-40.3,0.7-60.5,0.6
	c-25.5-6.4-52.3-4.5-78.7-1.1c-47.9-1.2-95.8-3.1-143.7-4.7c-96.1-3.4-194-5.7-288,6.1c-1.1-0.3-2.2-0.6-3.3-0.8
	C44.8,5.5,32,7.9,21.9,14.5C14.5,15.8,7,17.1,0,18.6v-0.1H1352z"/>
</svg>
