<?xml version="1.0" encoding="UTF-8" standalone="no"?>
<svg width="198px" height="122px" viewBox="0 0 198 122" version="1.1" xmlns="http://www.w3.org/2000/svg" xmlns:xlink="http://www.w3.org/1999/xlink" xmlns:sketch="http://www.bohemiancoding.com/sketch/ns">
    <!-- Generator: Sketch 3.0.3 (7892) - http://www.bohemiancoding.com/sketch -->
    <title>Group 258</title>
    <desc>Created with Sketch.</desc>
    <defs></defs>
    <g id="Page-6" stroke="none" stroke-width="1" fill="none" fill-rule="evenodd" sketch:type="MSPage">
        <g id="Aorta-Design-D" sketch:type="MSLayerGroup" transform="translate(-1152.000000, -5.000000)" fill="#133C37">
            <g id="Group-258" transform="translate(1252.000000, 105.000000)" sketch:type="MSShapeGroup">
                <path d="M12.8983,1.8922 C11.1633,1.8922 9.5303,2.5682 8.3023,3.7952 C5.7683,6.3292 5.7683,10.4552 8.3023,12.9892 C9.5303,14.2162 11.1633,14.8922 12.8983,14.8922 C14.6343,14.8922 16.2673,14.2162 17.4953,12.9892 C18.7223,11.7612 19.3983,10.1272 19.3983,8.3922 C19.3983,6.6562 18.7223,5.0232 17.4953,3.7952 C16.2673,2.5682 14.6343,1.8922 12.8983,1.8922 M12.8983,16.8922 C10.6283,16.8922 8.4943,16.0082 6.8883,14.4032 C3.5733,11.0882 3.5733,5.6962 6.8883,2.3812 C8.4943,0.7762 10.6283,-0.1078 12.8983,-0.1078 C15.1693,-0.1078 17.3033,0.7762 18.9093,2.3812 C20.5143,3.9872 21.3983,6.1212 21.3983,8.3922 C21.3983,10.6632 20.5143,12.7972 18.9093,14.4032 C17.3033,16.0082 15.1693,16.8922 12.8983,16.8922" id="Fill-254"></path>
                <path d="M0.8772,21.4137 C0.6212,21.4137 0.3652,21.3157 0.1702,21.1207 C-0.2208,20.7297 -0.2208,20.0977 0.1702,19.7067 L6.5342,13.3427 C6.9252,12.9517 7.5582,12.9517 7.9482,13.3427 C8.3392,13.7327 8.3392,14.3657 7.9482,14.7567 L1.5842,21.1207 C1.3892,21.3157 1.1332,21.4137 0.8772,21.4137" id="Fill-256"></path>
            </g>
        </g>
    </g>
</svg>