<?xml version="1.0" encoding="utf-8"?>
<!-- Generator: Adobe Illustrator 18.1.1, SVG Export Plug-In . SVG Version: 6.00 Build 0)  -->
<!DOCTYPE svg PUBLIC "-//W3C//DTD SVG 1.1//EN" "http://www.w3.org/Graphics/SVG/1.1/DTD/svg11.dtd">
<svg version="1.1" id="Layer_1" xmlns="http://www.w3.org/2000/svg" xmlns:xlink="http://www.w3.org/1999/xlink" x="0px" y="0px"
	 width="1280px" height="25px" viewBox="0 0 1259.8 25" enable-background="new 0 0 1259.8 25" xml:space="preserve">
<path fill="#FFFFFF" d="M1222.4,1c-16.6,1.7-34.8-1.5-51.2,1.3c-14.7,2.5-29.6,2.5-44.3,2.9c-16.4,0.5-32.9-0.1-49.3,0.3
	c-25.7,0.6-51.3,2.3-77,2.5C977,8.2,953.4,7,929.9,6.3c-33.7-1-67.3-2.1-101-2.9c-22.6-0.5-45,0.2-67.4,4.1
	c-18.8,3.3-37.9,4.9-56.9,4.6c-31.2-0.5-62.5-2.1-93.7-2.2c-12.9-0.1-25.8,2.2-38.7,3.8c-12.4,1.5-24.6,4.1-37,4.9
	c-16.4,1.1-32.8,0.8-49.2,1.4c-15.6,0.5-31.2,1.4-46.8,2c-13.2,0.5-26.5,1.8-39.7,1.3c-23-0.8-46-2.5-68.9-4c-3.9-0.3-7.9-1-11.7-2
	c-10.4-2.9-20.7-6.6-31.2-8.9c-24.1-5.4-47-3.2-71.7-3.6c-27.3-0.5-56-4.8-83.3-2.4c-21.6,1.9-43.4,2.3-65.1,3
	C49.6,5.8,31.8,5.7,14.1,5.4C7.9,5.3,0.3,5,0.1,14h0l0,11h1259.8v-7.6c0-0.4,0-0.9,0-1.3C1259.8,3,1254.7-2.4,1222.4,1z"/>
</svg>
